<svg viewBox="0 0 96 96" xmlns="http://www.w3.org/2000/svg" xmlns:xlink="http://www.w3.org/1999/xlink" id="Icons_Man" overflow="hidden"><g><circle cx="48" cy="11" r="8"/><path d="M69.8 52.2 64.2 28.4C64 27.6 63.6 26.8 63 26.2 60.6 24.2 57.8 22.8 54.6 21.8 52.4 21.4 50.2 21 48 21 45.8 21 43.6 21.4 41.4 22 38.2 22.8 35.4 24.4 33 26.4 32.4 27 32 27.8 31.8 28.6L26.2 52.4C26.2 52.6 26 53 26 53.4 26 55.6 27.8 57.4 30 57.4 31.8 57.4 33.4 56 33.8 54.4L38 37 38 93 46 93 46 57 50 57 50 93 58 93 58 36.8 62.2 54.2C62.6 55.8 64.2 57.2 66 57.2 68.2 57.2 70 55.4 70 53.2 70 52.8 69.8 52.4 69.8 52.2Z"/></g></svg>