<svg viewBox="0 0 96 96" xmlns="http://www.w3.org/2000/svg" xmlns:xlink="http://www.w3.org/1999/xlink" id="Icons_BabyCrawling" overflow="hidden"><circle cx="75.5" cy="34.5" r="12.5"/><path d="M18 59C18 60.6 18.6 62 19.6 63.1 17.2 61.9 16 59.8 16 56 16 48.6 22.8 47.6 32 47L32 60.8 30 57C28.7 54.4 26.8 53 24 53 20.7 53 18 55.7 18 59ZM9 71C9 73.2 10.8 75 13 75L33 75C34.5 75 36 74.1 36.6 72.7 37.3 71.3 36.9 69.7 36.1 68.5L34.7 66 33.9 64.5 58.2 57.8 59.1 62.7C59.2 63.5 59.6 64.3 60.2 64.8L69.2 73.8C70 74.6 71 75 72 75 73 75 74 74.6 74.8 73.8 76.4 72.2 76.4 69.7 74.8 68.1L66.7 60 63.9 44.2C63.6 42.3 61.9 40.9 60 40.9L32 42.9C24.2 43.4 12 44.2 12 55.9 12 62.2 14.8 65.3 18.7 66.9L13 66.9C10.8 67 9 68.8 9 71Z"/></svg>