<svg viewBox="0 0 96 96" xmlns="http://www.w3.org/2000/svg" xmlns:xlink="http://www.w3.org/1999/xlink" id="Icons_Baby" overflow="hidden"><circle fill="#61B7E1" cx="48" cy="20.5" r="12.5"/>
<path fill="#61B7E1" d="M57 62.5C57 62.6 57 62.7 57 62.8 53.5 63.1 50.9 66 51 69.5 51 70.5 51.3 71.5 51.8 72.3 50.7 72.7 49.3 72.9 47.8 72.9 46.2 72.9 44.9 72.7 43.9 72.3 45.4 70.1 45.4 67.1 43.8 64.8 42.6 63.2 40.9 62.2 39 62L39 60 57 60 57 62.5ZM76.2 44.2 59 35.2C58.6 35.1 58.2 35 57.8 35L39 35C38.5 35 38.1 35.1 37.6 35.2L19.6 45.2C17.5 46 16.5 48.3 17.2 50.3 17.8 52 19.4 53 21 53 21.5 53 21.9 52.9 22.4 52.8L35 46.2C35 46.2 35 62.7 35 63 34.8 63.1 26.8 68.7 26.8 68.7 25.1 69.9 24.6 72.3 25.7 74.1L32.7 85.1C33.9 87 36.4 87.5 38.2 86.3 40 85.1 40.6 82.6 39.4 80.8L36 75.3 38.2 75.3C38.9 75.3 39.6 75.2 40.3 75 42.1 76.2 44.5 76.9 47.7 76.9 50.7 76.9 53.1 76.2 55 75.2 55.8 75.6 56.8 75.7 57.8 75.7L59.6 75.6 56 80.6C54.7 82.4 55.1 84.9 56.9 86.2 58.7 87.5 61.2 87.1 62.5 85.3L70.5 74.3C70.6 74.2 70.7 74.1 70.7 73.9 71.8 72 71.1 69.5 69.2 68.4L61 63.8C61 63.4 61 45.8 61 45.8L73.8 51.9C74.2 52 74.6 52.1 75 52.1 76.7 52.1 78.3 51 78.8 49.3 79.5 47.1 78.3 44.9 76.2 44.2Z"/></svg>