<svg viewBox="0 0 96 96" xmlns="http://www.w3.org/2000/svg" xmlns:xlink="http://www.w3.org/1999/xlink" id="Icons_ChildWithBalloon" overflow="hidden">
<path fill="#61B7E1" d="M69.5 10C69.5 5.58 66.37 2 62.5 2 58.63 2 55.5 5.58 55.5 10 55.5 14 58.71 18.84 61.5 19.81 61.4953 19.8732 61.4953 19.9368 61.5 20 61.4384 22.4614 61.7761 24.9166 62.5 27.27 63.1952 29.4445 63.5329 31.7173 63.5 34 63.5329 36.2827 63.1952 38.5555 62.5 40.73 62.29 41.45 62.08 42.19 61.91 43.06 61.2955 43.1679 60.7314 43.4692 60.3 43.92L49.65 55 42.78 55C38.09 55.35 34.13 59.07 33.18 61.5 32.94 62.13 30.06 68.92 28.18 73.33 27.5352 74.8543 28.2467 76.6129 29.77 77.26 30.1387 77.4217 30.5374 77.5035 30.94 77.5 32.1414 77.5007 33.2274 76.7846 33.7 75.68L37 67.93 37 94 43 94 43 76 46 76 46 94 52 94 52 61.21 64.66 48.08C65.808 46.8868 65.7722 44.9891 64.58 43.84 64.3823 43.6542 64.1602 43.4961 63.92 43.37 64.08 42.62 64.27 41.95 64.46 41.27 65.1839 38.9166 65.5216 36.4614 65.46 34 65.5216 31.5386 65.1839 29.0834 64.46 26.73 63.7648 24.5555 63.4271 22.2827 63.46 20 63.4647 19.9368 63.4647 19.8732 63.46 19.81 66.29 18.84 69.5 14 69.5 10Z"/>
<circle fill="#61B7E1" cx="44.5" cy="45.5" r="7.5"/></svg> 