<svg viewBox="0 0 96 96" xmlns="http://www.w3.org/2000/svg" xmlns:xlink="http://www.w3.org/1999/xlink" id="Icons_PersonWithCane" overflow="hidden"><path d="M68.5 47C68.1 47 67.8 47 67.4 47.1 67.1 45.9 66.3 44.8 65 44.3L56.5 40.9 51 28.2 51 28.2C49.9 25.2 47 23 43.5 23 41.7 23 40.1 23.6 38.8 24.5L38.8 24.5 25.3 33.6C24.5 34.2 23.9 35 23.6 36L20.6 49C20.1 51.2 21.4 53.3 23.6 53.8 23.9 53.9 24.2 53.9 24.5 53.9 26.3 53.9 28 52.6 28.4 50.8L31 39.4 33.5 37.7C32.5 44.5 32.4 49.9 32.4 50.8L31.4 68.3 27.5 86C27 88.2 28.4 90.3 30.5 90.8 30.8 90.9 31.1 90.9 31.4 90.9 33.2 90.9 34.9 89.6 35.3 87.8L39.3 69.8C39.3 69.6 39.4 69.4 39.4 69.2L39.9 59.4 46.4 66.6 47.3 85.2C47.4 87.3 49.2 89 51.3 89 51.4 89 51.4 89 51.5 89 53.7 88.9 55.4 87 55.3 84.8L54.3 64.8C54.3 63.9 53.9 63 53.3 62.3L46.3 54.6 46.3 38.4C46.3 38.4 46.4 38.4 46.4 38.3L49.6 45.6C50 46.6 50.8 47.3 51.8 47.7L61.7 51.7C61.4 52.4 61.3 53.2 61.3 54 61.3 56.2 62.3 58.1 63.9 59.4 63.9 59.4 64 59.5 64 59.5 64.3 59.8 64.8 60 65.3 60 66.4 60 67.3 59.1 67.3 58 67.3 57.3 67 56.7 66.5 56.4 66 55.8 65.5 55 65.5 54 65.5 52.3 66.8 51 68.5 51 70.2 51 71.5 52.3 71.5 54L71.5 60.3 71.5 63 71.5 89C71.5 90.1 72.4 91 73.5 91 74.6 91 75.5 90.1 75.5 89L75.5 54C75.5 50.1 72.4 47 68.5 47Z"/><circle cx="49" cy="14" r="8"/></svg>