<svg viewBox="0 0 96 96" xmlns="http://www.w3.org/2000/svg" xmlns:xlink="http://www.w3.org/1999/xlink" id="Icons_Fireworks" overflow="hidden"><path d="M26.29 50C25.671 49.9985 25.0876 49.7105 24.71 49.22 24.0331 48.3471 24.192 47.0908 25.0649 46.4139 25.0666 46.4126 25.0683 46.4113 25.07 46.41 28.9115 43.4152 33.4372 41.4221 38.24 40.61 39.3446 40.436 40.381 41.1904 40.555 42.295 40.729 43.3996 39.9746 44.436 38.87 44.61 34.7273 45.3088 30.8234 47.027 27.51 49.61 27.1571 49.8702 26.7284 50.0073 26.29 50Z"/><path d="M15.8 68.65 15.7 68.65C14.5989 68.5961 13.7491 67.6613 13.8 66.56 14.0042 62.8515 15.0288 59.2346 16.8 55.97 17.3247 54.9952 18.5402 54.6303 19.515 55.155 20.4898 55.6797 20.8547 56.8952 20.33 57.87 18.8209 60.6015 17.9395 63.6351 17.75 66.75 17.6979 67.7963 16.8473 68.6251 15.8 68.65Z"/><path d="M5.21 43.1C4.58049 43.1 3.98771 42.8036 3.61 42.3 2.94507 41.419 3.11961 40.1658 4 39.5 9.1 35.68 16.93 33.5 25.49 33.5 28.9903 33.4856 32.4804 33.8783 35.89 34.67 36.9856 34.8103 37.76 35.8122 37.6197 36.9079 37.4794 38.0035 36.4775 38.7779 35.3819 38.6376 35.252 38.621 35.1241 38.5916 35 38.55 31.8876 37.8349 28.7035 37.4792 25.51 37.49 17.91 37.49 10.78 39.44 6.42 42.71 6.06982 42.9681 5.64502 43.1051 5.21 43.1Z"/><path d="M43.7 36.16C42.97 36.1507 42.2936 35.7749 41.9 35.16 39.6292 31.8164 36.8015 28.8872 33.54 26.5 28.13 22.5 22.02 20.05 17.21 20.04 16.0226 20.04 15.06 19.0774 15.06 17.89 15.06 16.7026 16.0226 15.74 17.21 15.74L17.21 15.74C22.99 15.74 29.88 18.41 36.1 23.05 39.7692 25.7377 42.946 29.0397 45.49 32.81 46.1362 33.8128 45.8472 35.1495 44.8444 35.7957 44.5 36.0176 44.0997 36.137 43.69 36.14Z"/><path d="M81.23 59.69C80.3992 59.6901 79.6549 59.1766 79.36 58.4 77.58 53.7 73.12 49.24 67.36 46.47 65.1406 45.379 62.7869 44.5855 60.36 44.11 59.2748 43.9029 58.5629 42.8552 58.77 41.77 58.9771 40.6848 60.0248 39.9729 61.11 40.18 63.8826 40.7238 66.5721 41.6281 69.11 42.87 75.86 46.13 80.94 51.27 83.1 57 83.4922 58.0326 82.9731 59.1876 81.9405 59.5798 81.9403 59.5799 81.9402 59.5799 81.94 59.58 81.7122 59.6606 81.4715 59.6979 81.23 59.69Z"/><path d="M62.71 62 62.71 62C61.6054 62 60.71 61.1046 60.71 60 60.5751 56.8604 59.2819 53.8821 57.08 51.64 56.176 50.6263 55.1401 49.7383 54 49 53.0481 48.4397 52.7306 47.2138 53.2909 46.2619 53.8512 45.31 55.0771 44.9925 56.029 45.5528 56.0702 45.5771 56.1106 45.6028 56.15 45.63 57.5728 46.5482 58.8674 47.6512 60 48.91 62.9124 51.898 64.5847 55.8785 64.68 60.05 64.6533 61.1234 63.7837 61.9842 62.71 62Z"/><path d="M54.85 38.86C53.7454 38.8649 52.8461 37.9734 52.8412 36.8689 52.8379 36.123 53.2499 35.4373 53.91 35.09 56.4977 33.7377 59.251 32.7291 62.1 32.09 63.1797 31.8415 64.2565 32.5153 64.505 33.595 64.7535 34.6747 64.0797 35.7515 63 36 60.4945 36.5565 58.0712 37.4338 55.79 38.61 55.502 38.7694 55.1791 38.8553 54.85 38.86Z"/><path d="M90.3 39.56C89.8967 39.5599 89.5028 39.4379 89.17 39.21 86.07 37.08 80.83 35.56 75.17 35.14 74.0654 35.0572 73.2372 34.0946 73.32 32.99 73.4028 31.8854 74.3654 31.0572 75.47 31.14 81.92 31.62 87.75 33.35 91.47 35.9 92.3813 36.5242 92.614 37.769 91.9897 38.6803 91.6169 39.2245 90.9997 39.5499 90.34 39.55Z"/><path d="M51.15 33.66C50.0454 33.6598 49.1502 32.7642 49.1504 31.6596 49.1504 31.3659 49.2152 31.0758 49.34 30.81 50.8372 27.6336 52.7801 24.6873 55.11 22.06 60.04 16.42 66.11 12.6 71.72 11.57 72.8148 11.4232 73.8213 12.1917 73.968 13.2865 74.105 14.3078 73.4435 15.266 72.44 15.5 67.76 16.36 62.44 19.8 58.12 24.7 56.0566 27.0475 54.3331 29.6731 53 32.5 52.6674 33.2189 51.942 33.6738 51.15 33.66Z"/><path d="M40.7 84.28C39.6961 84.2899 38.8405 83.554 38.7 82.56 38.0687 77.2974 38.0922 71.9768 38.77 66.72 39.3582 61.0531 40.7348 55.4961 42.86 50.21 43.3018 49.1966 44.4816 48.7332 45.495 49.175 46.5084 49.6168 46.9718 50.7966 46.53 51.81 44.5591 56.7353 43.2867 61.9122 42.75 67.19 42.1081 72.1044 42.0846 77.0798 42.68 82 42.8351 83.0867 42.0853 84.0954 41 84.26 40.9011 84.2781 40.8004 84.2848 40.7 84.28Z"/><path d="M32.79 60.39C32.6507 60.4096 32.5093 60.4096 32.37 60.39 31.2892 60.1621 30.5977 59.1013 30.8256 58.0205 30.827 58.0136 30.8285 58.0068 30.83 58 31.4841 55.2803 32.6777 52.7197 34.34 50.47 34.9547 49.6312 35.6227 48.8329 36.34 48.08 37.0966 47.2737 38.3637 47.2334 39.17 47.99 39.9763 48.7466 40.0166 50.0137 39.26 50.82 38.6741 51.4535 38.1264 52.1213 37.62 52.82 36.2853 54.6122 35.32 56.6516 34.78 58.82 34.5753 59.7505 33.7426 60.4075 32.79 60.39Z"/><path d="M44.75 21.55C43.772 21.566 42.9259 20.8722 42.75 19.91 42.3682 17.5242 41.6686 15.2002 40.67 13 40.1619 12.0169 40.5469 10.8081 41.53 10.3 42.5131 9.7919 43.7219 10.1769 44.23 11.16 45.4213 13.7005 46.2591 16.3922 46.72 19.16 46.9208 20.2451 46.2048 21.2877 45.12 21.49 44.9995 21.5249 44.8753 21.545 44.75 21.55Z"/><path d="M56.88 76C55.8661 76.0079 55.0067 75.256 54.88 74.25 54.1095 67.576 52.6208 61.0046 50.44 54.65 50.0727 53.6062 50.6212 52.4623 51.665 52.095 52.7088 51.7277 53.8527 52.2762 54.22 53.32 56.49 59.9481 58.0422 66.8007 58.85 73.76 58.9915 74.8555 58.2181 75.8582 57.1226 75.9997 57.1217 75.9998 57.1209 75.9999 57.12 76Z"/><circle cx="9" cy="49" r="2"/><circle cx="30" cy="66" r="2"/><circle cx="71" cy="61" r="2"/><circle cx="58" cy="84" r="2"/><circle cx="54" cy="15" r="2"/><circle cx="31" cy="12" r="2"/><circle cx="69" cy="33" r="2"/><circle cx="22" cy="52" r="2"/><circle cx="46" cy="25.96" r="2"/><path d="M19.76 78.44C19.9645 78.2488 20.0455 77.9596 19.97 77.69 19.8684 77.4263 19.6221 77.2464 19.34 77.23L17.05 77.23C16.7632 77.2273 16.5099 77.0424 16.42 76.77L15.67 74.51C15.5676 74.2221 15.3047 74.022 15 74 14.7096 74.02 14.453 74.1962 14.33 74.46L13.58 76.71C13.5083 76.9951 13.2434 77.1885 12.95 77.17L10.66 77.17C10.37 77.1628 10.1115 77.3516 10.03 77.63 9.94707 77.8996 10.0292 78.1927 10.24 78.38L11.03 79.09 12 80C12.0886 80.0989 12.1566 80.2145 12.2 80.34 12.2494 80.4584 12.2494 80.5916 12.2 80.71L11.49 83.09C11.3962 83.37 11.503 83.6781 11.75 83.84 11.9863 84.0086 12.3037 84.0086 12.54 83.84L14.54 82.42C14.7829 82.2609 15.0971 82.2609 15.34 82.42L17.34 83.84C17.5763 84.0086 17.8937 84.0086 18.13 83.84 18.3704 83.6731 18.4722 83.3678 18.38 83.09L17.67 80.71C17.5882 80.4527 17.6713 80.1714 17.88 80L19.72 78.42Z"/><path d="M11.76 24.44C11.9645 24.2488 12.0455 23.9596 11.97 23.69 11.8684 23.4263 11.6221 23.2464 11.34 23.23L9.05 23.23C8.76319 23.2273 8.50989 23.0424 8.42 22.77L7.67 20.51C7.56763 20.2221 7.30474 20.022 7 20 6.70961 20.02 6.45302 20.1962 6.33 20.46L5.58 22.71C5.50829 22.9951 5.24341 23.1885 4.95 23.17L2.66 23.17C2.37002 23.1628 2.11149 23.3516 2.03 23.63 1.94707 23.8996 2.02916 24.1927 2.24 24.38L3 25.1 4 26C4.08858 26.0989 4.15657 26.2145 4.2 26.34 4.24944 26.4584 4.24944 26.5916 4.2 26.71L3.49 29.09C3.39623 29.37 3.50302 29.6781 3.75 29.84 3.98633 30.0087 4.30367 30.0087 4.54 29.84L6.54 28.42C6.78293 28.2609 7.09707 28.2609 7.34 28.42L9.34 29.84C9.57633 30.0087 9.89367 30.0087 10.13 29.84 10.3704 29.6731 10.4722 29.3678 10.38 29.09L9.67 26.71C9.59698 26.4444 9.69665 26.1613 9.92 26L11.76 24.42Z"/><path d="M80.76 70.34C80.9645 70.1488 81.0455 69.8596 80.97 69.59 80.8684 69.3263 80.6221 69.1464 80.34 69.13L78.05 69.13C77.7632 69.1273 77.5099 68.9424 77.42 68.67L76.67 66.41C76.5645 66.1261 76.3022 65.9304 76 65.91 75.7096 65.93 75.453 66.1062 75.33 66.37L74.58 68.63C74.501 68.9088 74.2394 69.0957 73.95 69.08L71.66 69.08C71.37 69.0729 71.1115 69.2616 71.03 69.54 70.9471 69.8096 71.0292 70.1027 71.24 70.29L72 71 73 71.92C73.0886 72.0189 73.1566 72.1345 73.2 72.26 73.2494 72.3784 73.2494 72.5116 73.2 72.63L72.53 75C72.4362 75.28 72.543 75.5881 72.79 75.75 73.0263 75.9186 73.3437 75.9186 73.58 75.75L75.58 74.33C75.8229 74.1709 76.1371 74.1709 76.38 74.33L78.38 75.75C78.6163 75.9186 78.9337 75.9186 79.17 75.75 79.4104 75.5831 79.5122 75.2778 79.42 75L78.71 72.62C78.6282 72.3627 78.7113 72.0814 78.92 71.91L80.76 70.33Z"/><path d="M86.76 21.44C86.9645 21.2488 87.0455 20.9596 86.97 20.69 86.8684 20.4263 86.6221 20.2464 86.34 20.23L84.05 20.23C83.7632 20.2273 83.5099 20.0424 83.42 19.77L82.67 17.51C82.5676 17.2221 82.3047 17.022 82 17 81.7096 17.02 81.453 17.1962 81.33 17.46L80.58 19.72C80.501 19.9988 80.2394 20.1857 79.95 20.17L77.66 20.17C77.37 20.1628 77.1115 20.3516 77.03 20.63 76.9471 20.8996 77.0292 21.1927 77.24 21.38L78.03 22.09 79 23C79.0886 23.0989 79.1566 23.2145 79.2 23.34 79.2494 23.4584 79.2494 23.5916 79.2 23.71L78.49 26.09C78.3962 26.37 78.503 26.6781 78.75 26.84 78.9863 27.0087 79.3037 27.0087 79.54 26.84L81.54 25.42C81.7829 25.2609 82.0971 25.2609 82.34 25.42L84.34 26.84C84.5763 27.0087 84.8937 27.0087 85.13 26.84 85.3704 26.6731 85.4722 26.3678 85.38 26.09L84.67 23.71C84.5882 23.4527 84.6713 23.1714 84.88 23L86.72 21.42Z"/><circle cx="92" cy="52" r="2"/></svg>