<svg viewBox="0 0 96 96" xmlns="http://www.w3.org/2000/svg" xmlns:xlink="http://www.w3.org/1999/xlink" id="Icons_Help_LTR" overflow="hidden"><path d="M48 10C27 10 10 27 10 48 10 69 27 86 48 86 69 86 86 69 86 48 86 27 69 10 48 10ZM48 76C45.2 76 43 73.8 43 71 43 68.2 45.2 66 48 66 50.8 66 53 68.2 53 71 53 73.8 50.8 76 48 76ZM51 52.8C51 55.4 51 62 51 62L45 62 45 47 48 47C54.7 47 59 43.1 59 37 59 30.7 54.3 26 48 26 41.1 26 37 30.1 37 37L31 37C31 26.8 37.8 20 48 20 57.5 20 65 27.5 65 37 65 45.5 59.4 51.6 51 52.8Z"/></svg>