<svg viewBox="0 0 96 96" xmlns="http://www.w3.org/2000/svg" xmlns:xlink="http://www.w3.org/1999/xlink" id="Icons_CircularFlowchart" overflow="hidden"><path d="M22.09 53.05C22 52.37 22 51.69 22 51 22.0008 40.949 27.7947 31.7987 36.88 27.5 36.3662 26.2262 36.0786 24.8726 36.03 23.5 25.0839 28.263 18.0034 39.0626 18 51 18 52.02 18.05 53.02 18.15 54 19.3989 53.459 20.7318 53.1377 22.09 53.05Z" stroke="none" stroke-width="0.999986" stroke-linecap="butt" stroke-opacity="1" fill="#132832" fill-opacity="1"/><path d="M74 51C74 51.69 74 52.37 73.91 53 75.2712 53.1035 76.6042 53.4418 77.85 54 77.95 53 78 52 78 51 78.0018 39.0697 70.9343 28.2721 60 23.5 59.9514 24.8726 59.6638 26.2262 59.15 27.5 68.2236 31.8074 74.0047 40.9559 74 51Z" stroke="none" stroke-width="0.999986" stroke-linecap="butt" stroke-opacity="1" fill="#132832" fill-opacity="1"/><path d="M63.28 72C54.1797 78.6532 41.8203 78.6532 32.72 72 31.9246 73.1036 30.9473 74.064 29.83 74.84 40.556 83.0387 55.444 83.0387 66.17 74.84 65.0527 74.064 64.0754 73.1036 63.28 72Z" stroke="none" stroke-width="0.999986" stroke-linecap="butt" stroke-opacity="1" fill="#132832" fill-opacity="1"/><circle cx="48" cy="23" r="8" stroke="none" stroke-width="0.999986" stroke-linecap="butt" stroke-opacity="1" fill="#132832" fill-opacity="1"/><circle cx="73" cy="65" r="8" stroke="none" stroke-width="0.999986" stroke-linecap="butt" stroke-opacity="1" fill="#132832" fill-opacity="1"/><circle cx="23" cy="65" r="8" stroke="none" stroke-width="0.999986" stroke-linecap="butt" stroke-opacity="1" fill="#132832" fill-opacity="1"/></svg>
