<svg viewBox="0 0 96 96" xmlns="http://www.w3.org/2000/svg" xmlns:xlink="http://www.w3.org/1999/xlink" id="Icons_FamilyWithBoy" overflow="hidden"><g><circle cx="23" cy="15" r="7"/><circle cx="53" cy="15" r="7"/><circle cx="80" cy="56" r="5"/><path d="M90.8 74.2 87.3 65.8C86.1 64.1 84.2 62.8 82.1 62.2 81.5 62.1 80.7 62 80 62L75 62 70.8 54.9C70.9 54.4 71 53.9 70.9 53.4L66.2 29.8C64.3 27.7 61.9 26.1 59.1 25.1 57.2 24.4 55.1 24 52.9 24 50.7 24 48.7 24.4 46.7 25.1 44 26.1 41.6 27.7 39.6 29.8L38 38.7 36.2 29.8C34.3 27.7 31.9 26.1 29.1 25.1 27.2 24.4 25.1 24 22.9 24 20.7 24 18.7 24.4 16.7 25.1 14 26.1 11.6 27.7 9.6 29.8L5.1 53.4C4.8 55 5.8 56.6 7.5 56.9 7.6 57 7.8 57 8 57 9.4 57 10.7 56 10.9 54.6L15 34.3 15 88 21 88 21 57 25 57 25 88 31 88 31 34.3 35.1 54.6C35.3 56 36.6 57 38 57L38 57C39.4 57 40.7 56 40.9 54.6L45 34.3 45 45.2 41.2 64.1 45 64.1 45 88 51 88 51 64 55 64 55 88 61 88 61 64.1 64.8 64.1 61 45.2 61 34.3 65.1 54.6C65.3 55.8 66.3 56.7 67.4 56.9L75 69.8 75 88 79 88 79 76 81 76 81 88 85 88 85 70.6 87.2 75.8C87.5 76.6 88.3 77 89 77 89.3 77 89.5 77 89.8 76.8 90.8 76.4 91.3 75.2 90.8 74.2Z"/></g></svg>