<svg id="svg" version="1.1" xmlns="http://www.w3.org/2000/svg" xmlns:xlink="http://www.w3.org/1999/xlink" width="400" height="400" viewBox="0, 0, 400,400"><g id="svgg"><path id="path0" d="M190.800 0.407 C 190.800 0.720,190.450 0.799,189.791 0.634 C 189.084 0.456,188.712 0.563,188.548 0.990 C 188.420 1.326,187.974 1.600,187.557 1.600 C 187.141 1.600,186.800 1.780,186.800 2.000 C 186.800 2.220,186.543 2.400,186.229 2.400 C 185.914 2.400,185.412 2.625,185.113 2.900 C 184.263 3.682,182.870 4.400,182.205 4.400 C 181.872 4.400,181.600 4.670,181.600 5.000 C 181.600 5.373,181.222 5.600,180.600 5.600 C 180.050 5.600,179.600 5.780,179.600 6.000 C 179.600 6.220,179.234 6.400,178.787 6.400 C 178.341 6.400,177.871 6.670,177.745 7.000 C 177.618 7.330,177.184 7.600,176.781 7.600 C 176.377 7.600,175.936 7.780,175.800 8.000 C 175.664 8.220,175.203 8.400,174.776 8.400 C 174.349 8.400,174.000 8.670,174.000 9.000 C 174.000 9.400,173.600 9.600,172.800 9.600 C 172.140 9.600,171.600 9.780,171.600 10.000 C 171.600 10.220,171.234 10.400,170.787 10.400 C 170.341 10.400,169.871 10.670,169.745 11.000 C 169.618 11.330,169.084 11.600,168.557 11.600 C 168.031 11.600,167.600 11.777,167.600 11.992 C 167.600 12.208,167.150 12.498,166.600 12.636 C 166.050 12.774,165.600 13.047,165.600 13.243 C 165.600 13.440,165.330 13.600,165.000 13.600 C 164.670 13.600,164.400 13.780,164.400 14.000 C 164.400 14.220,164.034 14.400,163.587 14.400 C 163.141 14.400,162.671 14.670,162.545 15.000 C 162.418 15.330,162.091 15.600,161.819 15.600 C 161.165 15.600,158.879 16.749,158.584 17.225 C 158.457 17.431,158.003 17.600,157.576 17.600 C 157.149 17.600,156.800 17.760,156.800 17.957 C 156.800 18.153,156.350 18.426,155.800 18.564 C 155.055 18.751,154.800 19.080,154.800 19.851 C 154.800 20.758,154.675 20.855,153.791 20.634 C 153.084 20.456,152.712 20.563,152.548 20.990 C 152.420 21.326,152.078 21.600,151.790 21.600 C 151.108 21.600,148.806 22.910,148.803 23.300 C 148.801 23.465,148.566 23.600,148.280 23.600 C 147.361 23.600,145.606 24.584,145.603 25.100 C 145.601 25.375,145.150 25.600,144.600 25.600 C 144.050 25.600,143.600 25.780,143.600 26.000 C 143.600 26.220,143.253 26.400,142.829 26.400 C 142.405 26.400,141.999 26.709,141.926 27.086 C 141.820 27.637,141.430 27.751,139.959 27.660 C 138.323 27.559,137.963 27.703,136.654 28.974 C 135.846 29.758,134.913 30.400,134.580 30.400 C 134.247 30.400,133.871 30.670,133.745 31.000 C 133.618 31.330,133.084 31.600,132.557 31.600 C 132.031 31.600,131.600 31.780,131.600 32.000 C 131.600 32.220,131.343 32.400,131.029 32.400 C 130.714 32.400,130.219 32.632,129.929 32.915 C 129.638 33.199,128.725 33.747,127.900 34.134 C 127.075 34.521,126.400 35.009,126.400 35.219 C 126.400 35.428,126.051 35.600,125.624 35.600 C 125.197 35.600,124.736 35.780,124.600 36.000 C 124.464 36.220,123.998 36.400,123.564 36.400 C 123.130 36.400,122.671 36.670,122.545 37.000 C 122.418 37.330,121.974 37.600,121.557 37.600 C 121.141 37.600,120.800 37.760,120.800 37.957 C 120.800 38.153,120.350 38.426,119.800 38.564 C 119.250 38.702,118.800 38.992,118.800 39.208 C 118.800 39.423,118.596 39.600,118.346 39.600 C 118.096 39.600,117.475 40.050,116.965 40.600 C 116.455 41.150,115.877 41.600,115.681 41.600 C 115.135 41.600,112.846 42.801,112.584 43.225 C 112.457 43.431,112.003 43.600,111.576 43.600 C 111.149 43.600,110.800 43.780,110.800 44.000 C 110.800 44.220,110.350 44.400,109.800 44.400 C 109.178 44.400,108.800 44.627,108.800 45.000 C 108.800 45.433,108.356 45.600,107.200 45.600 C 106.320 45.600,105.600 45.780,105.600 46.000 C 105.600 46.220,105.234 46.400,104.787 46.400 C 104.341 46.400,103.871 46.670,103.745 47.000 C 103.618 47.330,103.150 47.600,102.704 47.600 C 102.259 47.600,101.300 48.230,100.574 49.000 C 99.848 49.770,98.882 50.400,98.427 50.400 C 97.959 50.400,97.600 50.660,97.600 51.000 C 97.600 51.373,97.222 51.600,96.600 51.600 C 96.050 51.600,95.600 51.780,95.600 52.000 C 95.600 52.220,95.234 52.400,94.787 52.400 C 94.341 52.400,93.871 52.670,93.745 53.000 C 93.618 53.330,93.278 53.600,92.990 53.600 C 92.308 53.600,90.006 54.910,90.003 55.300 C 90.001 55.465,89.640 55.600,89.200 55.600 C 88.760 55.600,88.400 55.780,88.400 56.000 C 88.400 56.220,88.034 56.400,87.587 56.400 C 87.141 56.400,86.671 56.670,86.545 57.000 C 86.418 57.330,86.078 57.600,85.790 57.600 C 85.108 57.600,82.806 58.910,82.803 59.300 C 82.801 59.465,82.596 59.600,82.346 59.600 C 82.096 59.600,81.475 60.050,80.965 60.600 C 80.455 61.150,79.770 61.600,79.443 61.600 C 79.115 61.600,78.736 61.780,78.600 62.000 C 78.464 62.220,78.003 62.400,77.576 62.400 C 77.149 62.400,76.800 62.670,76.800 63.000 C 76.800 63.453,76.311 63.600,74.800 63.600 C 73.700 63.600,72.800 63.780,72.800 64.000 C 72.800 64.220,72.549 64.400,72.243 64.400 C 71.936 64.400,71.582 64.670,71.455 65.000 C 71.329 65.330,70.859 65.600,70.413 65.600 C 69.966 65.600,69.600 65.780,69.600 66.000 C 69.600 66.220,69.234 66.400,68.787 66.400 C 68.341 66.400,67.871 66.670,67.745 67.000 C 67.618 67.330,67.084 67.600,66.557 67.600 C 66.031 67.600,65.600 67.780,65.600 68.000 C 65.600 68.220,65.358 68.400,65.062 68.400 C 64.766 68.400,64.001 68.850,63.362 69.400 C 62.723 69.949,62.065 70.399,61.900 70.400 C 61.735 70.400,61.600 70.670,61.600 71.000 C 61.600 71.373,61.222 71.600,60.600 71.600 C 60.050 71.600,59.600 71.780,59.600 72.000 C 59.600 72.220,59.234 72.400,58.787 72.400 C 58.341 72.400,57.871 72.670,57.745 73.000 C 57.618 73.330,57.084 73.600,56.557 73.600 C 56.031 73.600,55.600 73.777,55.600 73.992 C 55.600 74.208,55.150 74.498,54.600 74.636 C 54.050 74.774,53.600 75.047,53.600 75.243 C 53.600 75.440,53.330 75.600,53.000 75.600 C 52.670 75.600,52.400 75.780,52.400 76.000 C 52.400 76.220,52.034 76.400,51.587 76.400 C 51.141 76.400,50.671 76.670,50.545 77.000 C 50.418 77.330,50.091 77.600,49.819 77.600 C 49.079 77.600,47.108 78.654,46.111 79.582 C 45.629 80.032,44.956 80.400,44.617 80.400 C 44.278 80.400,44.000 80.670,44.000 81.000 C 44.000 81.432,43.558 81.600,42.424 81.600 C 41.557 81.600,40.736 81.780,40.600 82.000 C 40.464 82.220,39.998 82.400,39.564 82.400 C 39.130 82.400,38.671 82.670,38.545 83.000 C 38.418 83.330,37.974 83.600,37.557 83.600 C 37.141 83.600,36.800 83.760,36.800 83.957 C 36.800 84.153,36.350 84.426,35.800 84.564 C 35.250 84.702,34.800 84.992,34.800 85.208 C 34.800 85.423,34.530 85.600,34.200 85.600 C 33.870 85.600,33.600 85.780,33.600 86.000 C 33.600 86.220,33.234 86.400,32.787 86.400 C 32.341 86.400,31.871 86.670,31.745 87.000 C 31.618 87.330,31.084 87.600,30.557 87.600 C 30.031 87.600,29.600 87.760,29.600 87.957 C 29.600 88.153,29.150 88.426,28.600 88.564 C 28.050 88.702,27.600 88.992,27.600 89.208 C 27.600 89.423,27.373 89.600,27.095 89.600 C 26.817 89.600,26.252 90.050,25.839 90.600 C 25.426 91.150,24.753 91.600,24.344 91.600 C 23.935 91.600,23.600 91.780,23.600 92.000 C 23.600 92.220,23.234 92.400,22.787 92.400 C 22.341 92.400,21.871 92.670,21.745 93.000 C 21.618 93.330,21.264 93.600,20.957 93.600 C 20.482 93.600,20.400 109.466,20.400 201.000 C 20.400 296.200,20.468 308.400,21.000 308.400 C 21.330 308.400,21.600 308.670,21.600 309.000 C 21.600 309.330,21.870 309.600,22.200 309.600 C 22.530 309.600,22.800 309.780,22.800 310.000 C 22.800 310.220,23.166 310.400,23.613 310.400 C 24.059 310.400,24.529 310.670,24.655 311.000 C 24.782 311.330,25.226 311.600,25.643 311.600 C 26.059 311.600,26.400 311.780,26.400 312.000 C 26.400 312.220,26.670 312.400,27.000 312.400 C 27.330 312.400,27.600 312.670,27.600 313.000 C 27.600 313.373,27.978 313.600,28.600 313.600 C 29.150 313.600,29.600 313.780,29.600 314.000 C 29.600 314.220,29.870 314.400,30.200 314.400 C 30.530 314.400,30.800 314.577,30.800 314.792 C 30.800 315.008,31.250 315.298,31.800 315.436 C 32.350 315.574,32.800 315.847,32.800 316.043 C 32.800 316.240,33.166 316.400,33.613 316.400 C 34.059 316.400,34.529 316.670,34.655 317.000 C 34.782 317.330,35.216 317.600,35.619 317.600 C 36.023 317.600,36.464 317.780,36.600 318.000 C 36.736 318.220,37.557 318.400,38.424 318.400 C 39.558 318.400,40.000 318.568,40.000 319.000 C 40.000 319.330,40.349 319.600,40.776 319.600 C 41.203 319.600,41.664 319.780,41.800 320.000 C 41.936 320.220,42.377 320.400,42.781 320.400 C 43.184 320.400,43.625 320.689,43.761 321.042 C 43.896 321.394,44.258 321.587,44.565 321.469 C 44.884 321.346,45.507 321.756,46.021 322.427 C 46.515 323.072,47.253 323.600,47.660 323.600 C 48.067 323.600,48.400 323.737,48.400 323.905 C 48.400 324.211,49.585 324.933,50.900 325.429 C 51.285 325.574,51.600 325.852,51.600 326.047 C 51.600 326.241,52.031 326.400,52.557 326.400 C 53.084 326.400,53.618 326.670,53.745 327.000 C 53.871 327.330,54.341 327.600,54.787 327.600 C 55.234 327.600,55.600 327.780,55.600 328.000 C 55.600 328.220,56.050 328.400,56.600 328.400 C 57.169 328.400,57.600 328.631,57.600 328.936 C 57.600 329.231,58.311 329.706,59.179 329.993 C 60.048 330.280,60.852 330.759,60.967 331.057 C 61.081 331.356,61.451 331.600,61.787 331.600 C 62.124 331.600,62.400 331.780,62.400 332.000 C 62.400 332.220,62.670 332.400,63.000 332.400 C 63.330 332.400,63.600 332.670,63.600 333.000 C 63.600 333.373,63.978 333.600,64.600 333.600 C 65.150 333.600,65.600 333.780,65.600 334.000 C 65.600 334.220,66.050 334.400,66.600 334.400 C 67.222 334.400,67.600 334.627,67.600 335.000 C 67.600 335.330,67.870 335.600,68.200 335.600 C 68.530 335.600,68.800 335.780,68.800 336.000 C 68.800 336.220,69.700 336.400,70.800 336.400 C 72.311 336.400,72.800 336.547,72.800 337.000 C 72.800 337.333,73.156 337.600,73.600 337.600 C 74.040 337.600,74.400 337.780,74.400 338.000 C 74.400 338.220,74.850 338.400,75.400 338.400 C 75.950 338.400,76.400 338.572,76.400 338.781 C 76.400 338.991,77.075 339.476,77.900 339.860 C 78.725 340.243,79.544 340.792,79.720 341.078 C 79.896 341.365,80.348 341.600,80.725 341.600 C 81.102 341.600,81.748 342.050,82.161 342.600 C 82.574 343.150,83.247 343.600,83.656 343.600 C 84.065 343.600,84.400 343.780,84.400 344.000 C 84.400 344.220,84.751 344.400,85.180 344.400 C 85.609 344.400,86.104 344.625,86.280 344.900 C 86.689 345.539,88.222 346.400,88.952 346.400 C 89.261 346.400,89.618 346.670,89.745 347.000 C 89.871 347.330,90.341 347.600,90.787 347.600 C 91.234 347.600,91.600 347.780,91.600 348.000 C 91.600 348.220,92.050 348.400,92.600 348.400 C 93.222 348.400,93.600 348.627,93.600 349.000 C 93.600 349.373,93.978 349.600,94.600 349.600 C 95.150 349.600,95.600 349.780,95.600 350.000 C 95.600 350.220,95.870 350.400,96.200 350.400 C 96.530 350.400,96.800 350.577,96.800 350.792 C 96.800 351.008,97.250 351.298,97.800 351.436 C 98.350 351.574,98.800 351.847,98.800 352.043 C 98.800 352.240,99.250 352.400,99.800 352.400 C 100.350 352.400,100.800 352.593,100.800 352.829 C 100.800 353.674,101.968 354.400,103.329 354.400 C 104.191 354.400,104.801 354.626,104.945 355.000 C 105.071 355.330,105.541 355.600,105.987 355.600 C 106.434 355.600,106.800 355.780,106.800 356.000 C 106.800 356.220,107.166 356.400,107.613 356.400 C 108.059 356.400,108.529 356.670,108.655 357.000 C 108.782 357.330,109.216 357.600,109.619 357.600 C 110.023 357.600,110.464 357.780,110.600 358.000 C 110.736 358.220,111.177 358.400,111.581 358.400 C 111.984 358.400,112.418 358.670,112.545 359.000 C 112.671 359.330,113.141 359.600,113.587 359.600 C 114.034 359.600,114.400 359.759,114.400 359.953 C 114.400 360.148,114.715 360.412,115.100 360.542 C 116.139 360.891,117.286 361.687,118.207 362.700 C 118.657 363.195,119.335 363.600,119.713 363.600 C 120.091 363.600,120.400 363.780,120.400 364.000 C 120.400 364.220,120.850 364.400,121.400 364.400 C 121.950 364.400,122.400 364.572,122.400 364.781 C 122.400 364.991,123.075 365.476,123.900 365.860 C 124.725 366.243,125.544 366.792,125.720 367.078 C 125.896 367.365,126.391 367.600,126.820 367.600 C 127.249 367.600,127.600 367.780,127.600 368.000 C 127.600 368.220,128.050 368.400,128.600 368.400 C 129.222 368.400,129.600 368.627,129.600 369.000 C 129.600 369.373,129.978 369.600,130.600 369.600 C 131.150 369.600,131.600 369.780,131.600 370.000 C 131.600 370.220,132.050 370.400,132.600 370.400 C 133.222 370.400,133.600 370.627,133.600 371.000 C 133.600 371.330,133.870 371.600,134.200 371.600 C 134.530 371.600,134.800 371.780,134.800 372.000 C 134.800 372.220,135.520 372.400,136.400 372.400 C 137.556 372.400,138.000 372.567,138.000 373.000 C 138.000 373.333,138.356 373.600,138.800 373.600 C 139.240 373.600,139.600 373.780,139.600 374.000 C 139.600 374.220,140.050 374.400,140.600 374.400 C 141.150 374.400,141.601 374.625,141.603 374.900 C 141.606 375.416,143.361 376.400,144.280 376.400 C 144.566 376.400,144.800 376.567,144.800 376.771 C 144.800 377.186,147.050 378.400,147.819 378.400 C 148.091 378.400,148.418 378.670,148.545 379.000 C 148.671 379.330,149.141 379.600,149.587 379.600 C 150.034 379.600,150.400 379.780,150.400 380.000 C 150.400 380.220,150.766 380.400,151.213 380.400 C 151.659 380.400,152.129 380.670,152.255 381.000 C 152.382 381.330,152.671 381.600,152.897 381.600 C 153.123 381.600,153.725 382.050,154.235 382.600 C 154.745 383.150,155.430 383.600,155.757 383.600 C 156.085 383.600,156.464 383.780,156.600 384.000 C 156.736 384.220,157.177 384.400,157.581 384.400 C 157.984 384.400,158.418 384.670,158.545 385.000 C 158.671 385.330,159.141 385.600,159.587 385.600 C 160.034 385.600,160.400 385.737,160.400 385.905 C 160.400 386.211,161.585 386.933,162.900 387.429 C 163.285 387.574,163.600 387.852,163.600 388.047 C 163.600 388.241,164.050 388.400,164.600 388.400 C 165.222 388.400,165.600 388.627,165.600 389.000 C 165.600 389.373,165.978 389.600,166.600 389.600 C 167.150 389.600,167.600 389.780,167.600 390.000 C 167.600 390.220,168.301 390.400,169.157 390.400 C 170.172 390.400,170.795 390.609,170.945 391.000 C 171.071 391.330,171.498 391.600,171.893 391.600 C 172.287 391.600,172.948 392.050,173.361 392.600 C 173.774 393.150,174.447 393.600,174.856 393.600 C 175.265 393.600,175.600 393.780,175.600 394.000 C 175.600 394.220,176.050 394.400,176.600 394.400 C 177.222 394.400,177.600 394.627,177.600 395.000 C 177.600 395.373,177.978 395.600,178.600 395.600 C 179.150 395.600,179.600 395.780,179.600 396.000 C 179.600 396.220,179.870 396.400,180.200 396.400 C 180.530 396.400,180.800 396.577,180.800 396.792 C 180.800 397.008,181.250 397.298,181.800 397.436 C 182.350 397.574,182.800 397.847,182.800 398.043 C 182.800 398.240,183.095 398.400,183.456 398.400 C 183.817 398.400,184.342 398.715,184.624 399.100 C 185.089 399.737,186.115 399.800,196.000 399.800 C 205.885 399.800,206.911 399.737,207.376 399.100 C 207.658 398.715,208.196 398.400,208.573 398.400 C 209.338 398.400,210.400 397.486,210.400 396.829 C 210.400 396.593,210.634 396.400,210.920 396.400 C 211.839 396.400,213.594 395.416,213.597 394.900 C 213.599 394.625,214.050 394.400,214.600 394.400 C 215.150 394.400,215.600 394.220,215.600 394.000 C 215.600 393.780,215.966 393.600,216.413 393.600 C 216.859 393.600,217.329 393.330,217.455 393.000 C 217.582 392.670,218.016 392.400,218.419 392.400 C 218.823 392.400,219.264 392.220,219.400 392.000 C 219.536 391.780,219.997 391.600,220.424 391.600 C 220.851 391.600,221.200 391.330,221.200 391.000 C 221.200 390.567,221.644 390.400,222.800 390.400 C 223.680 390.400,224.400 390.220,224.400 390.000 C 224.400 389.780,224.850 389.600,225.400 389.600 C 226.022 389.600,226.400 389.373,226.400 389.000 C 226.400 388.670,226.681 388.400,227.024 388.400 C 227.367 388.400,227.536 388.220,227.400 388.000 C 227.264 387.780,227.501 387.600,227.927 387.600 C 228.353 387.600,228.895 387.367,229.132 387.082 C 229.368 386.797,230.200 386.314,230.981 386.008 C 231.761 385.701,232.400 385.214,232.400 384.925 C 232.400 384.632,232.841 384.400,233.400 384.400 C 233.950 384.400,234.400 384.220,234.400 384.000 C 234.400 383.780,234.850 383.600,235.400 383.600 C 236.022 383.600,236.400 383.373,236.400 383.000 C 236.400 382.627,236.778 382.400,237.400 382.400 C 237.950 382.400,238.400 382.220,238.400 382.000 C 238.400 381.780,238.657 381.600,238.971 381.600 C 239.286 381.600,239.788 381.375,240.087 381.100 C 240.937 380.318,242.330 379.600,242.995 379.600 C 243.328 379.600,243.600 379.330,243.600 379.000 C 243.600 378.660,243.959 378.400,244.429 378.400 C 245.314 378.400,246.400 377.534,246.400 376.829 C 246.400 376.593,246.850 376.400,247.400 376.400 C 247.950 376.400,248.400 376.263,248.400 376.095 C 248.400 375.789,249.585 375.067,250.900 374.571 C 251.285 374.426,251.600 374.148,251.600 373.953 C 251.600 373.759,251.960 373.600,252.400 373.600 C 252.844 373.600,253.200 373.333,253.200 373.000 C 253.200 372.557,253.663 372.400,254.968 372.400 C 256.625 372.400,259.192 371.368,259.197 370.700 C 259.199 370.535,259.470 370.400,259.800 370.400 C 260.130 370.400,260.400 370.220,260.400 370.000 C 260.400 369.780,260.850 369.600,261.400 369.600 C 261.950 369.600,262.400 369.407,262.400 369.171 C 262.400 368.462,263.488 367.600,264.384 367.600 C 264.847 367.600,265.329 367.330,265.455 367.000 C 265.582 366.670,265.964 366.400,266.305 366.400 C 266.646 366.400,267.514 365.950,268.236 365.400 C 268.957 364.850,269.739 364.400,269.973 364.400 C 270.208 364.400,270.400 364.220,270.400 364.000 C 270.400 363.780,270.850 363.600,271.400 363.600 C 272.022 363.600,272.400 363.373,272.400 363.000 C 272.400 362.627,272.778 362.400,273.400 362.400 C 273.950 362.400,274.400 362.220,274.400 362.000 C 274.400 361.780,274.766 361.600,275.213 361.600 C 275.659 361.600,276.129 361.330,276.255 361.000 C 276.382 360.670,276.700 360.400,276.963 360.400 C 277.846 360.400,279.594 359.405,279.597 358.900 C 279.599 358.625,279.973 358.400,280.429 358.400 C 281.314 358.400,282.400 357.534,282.400 356.829 C 282.400 356.593,282.850 356.400,283.400 356.400 C 283.950 356.400,284.400 356.220,284.400 356.000 C 284.400 355.780,284.760 355.600,285.200 355.600 C 285.644 355.600,286.000 355.333,286.000 355.000 C 286.000 354.556,286.467 354.400,287.800 354.400 C 288.790 354.400,289.600 354.220,289.600 354.000 C 289.600 353.780,289.966 353.600,290.413 353.600 C 290.859 353.600,291.329 353.330,291.455 353.000 C 291.582 352.670,292.116 352.400,292.643 352.400 C 293.169 352.400,293.600 352.263,293.600 352.095 C 293.600 351.770,294.097 351.471,296.741 350.206 C 297.653 349.769,298.400 349.184,298.400 348.906 C 298.400 348.628,298.850 348.400,299.400 348.400 C 299.950 348.400,300.400 348.220,300.400 348.000 C 300.400 347.780,300.670 347.600,301.000 347.600 C 301.330 347.600,301.600 347.330,301.600 347.000 C 301.600 346.670,301.855 346.400,302.168 346.400 C 302.881 346.400,305.194 345.102,305.197 344.700 C 305.199 344.535,305.470 344.400,305.800 344.400 C 306.130 344.400,306.400 344.220,306.400 344.000 C 306.400 343.780,306.850 343.600,307.400 343.600 C 308.022 343.600,308.400 343.373,308.400 343.000 C 308.400 342.627,308.778 342.400,309.400 342.400 C 309.950 342.400,310.400 342.220,310.400 342.000 C 310.400 341.780,310.766 341.600,311.213 341.600 C 311.659 341.600,312.129 341.330,312.255 341.000 C 312.382 340.670,312.916 340.400,313.443 340.400 C 313.969 340.400,314.400 340.220,314.400 340.000 C 314.400 339.780,314.676 339.600,315.013 339.600 C 315.349 339.600,315.729 339.330,315.855 339.000 C 315.982 338.670,316.349 338.400,316.671 338.400 C 317.354 338.400,318.400 337.449,318.400 336.829 C 318.400 336.581,319.244 336.400,320.400 336.400 C 321.500 336.400,322.400 336.263,322.400 336.095 C 322.400 335.789,323.585 335.067,324.900 334.571 C 325.285 334.426,325.600 334.148,325.600 333.953 C 325.600 333.759,325.966 333.600,326.413 333.600 C 326.859 333.600,327.329 333.330,327.455 333.000 C 327.582 332.670,328.116 332.400,328.643 332.400 C 329.169 332.400,329.600 332.220,329.600 332.000 C 329.600 331.780,329.966 331.600,330.413 331.600 C 330.859 331.600,331.329 331.330,331.455 331.000 C 331.582 330.670,332.026 330.400,332.443 330.400 C 332.859 330.400,333.200 330.220,333.200 330.000 C 333.200 329.780,333.451 329.600,333.757 329.600 C 334.064 329.600,334.418 329.330,334.545 329.000 C 334.671 328.670,335.141 328.400,335.587 328.400 C 336.034 328.400,336.400 328.220,336.400 328.000 C 336.400 327.780,336.670 327.600,337.000 327.600 C 337.330 327.600,337.600 327.330,337.600 327.000 C 337.600 326.627,337.978 326.400,338.600 326.400 C 339.150 326.400,339.600 326.263,339.600 326.095 C 339.600 325.770,340.097 325.471,342.741 324.206 C 343.653 323.769,344.400 323.184,344.400 322.906 C 344.400 322.628,344.850 322.400,345.400 322.400 C 345.950 322.400,346.400 322.220,346.400 322.000 C 346.400 321.780,346.850 321.600,347.400 321.600 C 348.022 321.600,348.400 321.373,348.400 321.000 C 348.400 320.627,348.778 320.400,349.400 320.400 C 349.950 320.400,350.400 320.220,350.400 320.000 C 350.400 319.780,350.760 319.600,351.200 319.600 C 351.644 319.600,352.000 319.333,352.000 319.000 C 352.000 318.600,352.400 318.400,353.200 318.400 C 354.007 318.400,354.400 318.201,354.400 317.792 C 354.400 317.344,354.662 317.251,355.400 317.436 C 356.156 317.626,356.400 317.530,356.400 317.043 C 356.400 316.624,356.748 316.400,357.400 316.400 C 357.950 316.400,358.400 316.220,358.400 316.000 C 358.400 315.780,358.751 315.600,359.180 315.600 C 359.609 315.600,360.104 315.375,360.280 315.100 C 360.699 314.445,362.228 313.600,362.995 313.600 C 363.328 313.600,363.600 313.330,363.600 313.000 C 363.600 312.627,363.978 312.400,364.600 312.400 C 365.150 312.400,365.600 312.220,365.600 312.000 C 365.600 311.780,365.966 311.600,366.413 311.600 C 366.859 311.600,367.329 311.330,367.455 311.000 C 367.582 310.670,367.922 310.400,368.210 310.400 C 368.892 310.400,371.194 309.090,371.197 308.700 C 371.199 308.535,371.470 308.400,371.801 308.400 C 372.334 308.400,372.390 296.314,372.301 201.100 L 372.200 93.800 371.300 93.672 C 370.805 93.602,370.400 93.287,370.400 92.972 C 370.400 92.657,370.128 92.400,369.795 92.400 C 369.230 92.400,367.653 91.665,367.200 91.191 C 366.660 90.626,364.762 89.600,364.257 89.600 C 363.943 89.600,363.582 89.330,363.455 89.000 C 363.329 88.670,362.859 88.400,362.413 88.400 C 361.966 88.400,361.600 88.220,361.600 88.000 C 361.600 87.780,361.249 87.600,360.821 87.600 C 360.392 87.600,359.556 87.150,358.962 86.600 C 358.369 86.050,357.549 85.600,357.142 85.600 C 356.734 85.600,356.400 85.420,356.400 85.200 C 356.400 84.980,355.950 84.800,355.400 84.800 C 354.850 84.800,354.400 84.622,354.400 84.405 C 354.400 83.702,353.043 82.400,352.311 82.400 C 351.920 82.400,351.600 82.220,351.600 82.000 C 351.600 81.780,350.790 81.600,349.800 81.600 C 348.467 81.600,348.000 81.444,348.000 81.000 C 348.000 80.667,347.644 80.400,347.200 80.400 C 346.760 80.400,346.400 80.220,346.400 80.000 C 346.400 79.780,345.969 79.600,345.443 79.600 C 344.916 79.600,344.382 79.330,344.255 79.000 C 344.129 78.670,343.659 78.400,343.213 78.400 C 342.766 78.400,342.400 78.220,342.400 78.000 C 342.400 77.780,341.950 77.600,341.400 77.600 C 340.850 77.600,340.400 77.374,340.400 77.098 C 340.400 76.821,339.822 76.339,339.115 76.026 C 338.408 75.714,337.443 75.040,336.969 74.529 C 336.496 74.018,335.724 73.600,335.254 73.600 C 334.762 73.600,334.400 73.346,334.400 73.000 C 334.400 72.627,334.022 72.400,333.400 72.400 C 332.850 72.400,332.400 72.220,332.400 72.000 C 332.400 71.780,332.130 71.600,331.800 71.600 C 331.470 71.600,331.199 71.465,331.197 71.300 C 331.194 70.898,328.881 69.600,328.168 69.600 C 327.855 69.600,327.600 69.423,327.600 69.208 C 327.600 68.992,327.150 68.702,326.600 68.564 C 326.050 68.426,325.600 68.153,325.600 67.957 C 325.600 67.760,325.150 67.600,324.600 67.600 C 324.050 67.600,323.600 67.419,323.600 67.199 C 323.600 66.978,322.880 66.486,322.000 66.104 C 321.120 65.723,320.400 65.274,320.400 65.106 C 320.400 64.938,319.950 64.800,319.400 64.800 C 318.748 64.800,318.400 64.576,318.400 64.156 C 318.400 63.651,318.086 63.549,316.943 63.683 C 315.786 63.818,315.448 63.703,315.297 63.126 C 315.192 62.727,314.768 62.400,314.353 62.400 C 313.939 62.400,313.600 62.263,313.600 62.095 C 313.600 61.789,312.415 61.067,311.100 60.571 C 310.715 60.426,310.400 60.148,310.400 59.953 C 310.400 59.759,309.969 59.600,309.443 59.600 C 308.916 59.600,308.382 59.330,308.255 59.000 C 308.129 58.670,307.659 58.400,307.213 58.400 C 306.766 58.400,306.400 58.220,306.400 58.000 C 306.400 57.780,305.950 57.600,305.400 57.600 C 304.778 57.600,304.400 57.373,304.400 57.000 C 304.400 56.670,304.068 56.400,303.661 56.400 C 303.255 56.400,302.274 55.770,301.481 55.000 C 300.688 54.230,299.690 53.600,299.263 53.600 C 298.835 53.600,298.382 53.330,298.255 53.000 C 298.129 52.670,297.659 52.400,297.213 52.400 C 296.766 52.400,296.400 52.220,296.400 52.000 C 296.400 51.780,295.950 51.600,295.400 51.600 C 294.841 51.600,294.400 51.368,294.400 51.075 C 294.400 50.786,293.770 50.302,293.000 50.000 C 292.230 49.698,291.600 49.324,291.600 49.169 C 291.600 49.014,291.150 48.774,290.600 48.636 C 290.050 48.498,289.600 48.208,289.600 47.992 C 289.600 47.777,289.169 47.600,288.643 47.600 C 288.116 47.600,287.582 47.330,287.455 47.000 C 287.329 46.670,286.859 46.400,286.413 46.400 C 285.966 46.400,285.600 46.230,285.600 46.023 C 285.600 45.816,284.877 45.591,283.993 45.523 C 283.109 45.455,282.401 45.249,282.420 45.064 C 282.468 44.576,281.111 43.628,280.343 43.613 C 279.981 43.606,279.582 43.330,279.455 43.000 C 279.329 42.670,278.859 42.400,278.413 42.400 C 277.966 42.400,277.600 42.220,277.600 42.000 C 277.600 41.780,277.249 41.600,276.821 41.600 C 276.392 41.600,275.556 41.150,274.962 40.600 C 274.369 40.050,273.549 39.600,273.142 39.600 C 272.734 39.600,272.400 39.423,272.400 39.208 C 272.400 38.992,271.950 38.702,271.400 38.564 C 270.850 38.426,270.400 38.153,270.400 37.957 C 270.400 37.760,269.950 37.600,269.400 37.600 C 268.778 37.600,268.400 37.373,268.400 37.000 C 268.400 36.627,268.022 36.400,267.400 36.400 C 266.850 36.400,266.400 36.220,266.400 36.000 C 266.400 35.780,266.207 35.600,265.971 35.600 C 265.736 35.600,265.292 35.375,264.985 35.100 C 263.682 33.931,263.213 33.600,262.860 33.600 C 262.654 33.600,262.382 33.330,262.255 33.000 C 262.129 32.670,261.659 32.400,261.213 32.400 C 260.766 32.400,260.400 32.220,260.400 32.000 C 260.400 31.780,259.950 31.600,259.400 31.600 C 258.778 31.600,258.400 31.373,258.400 31.000 C 258.400 30.670,258.128 30.400,257.795 30.400 C 257.230 30.400,255.653 29.665,255.200 29.191 C 254.244 28.191,252.535 27.558,251.075 27.663 C 249.754 27.759,249.380 27.640,249.275 27.092 C 249.201 26.711,248.795 26.400,248.371 26.400 C 247.947 26.400,247.600 26.220,247.600 26.000 C 247.600 25.780,247.330 25.600,247.000 25.600 C 246.670 25.600,246.400 25.395,246.400 25.144 C 246.400 24.529,245.165 23.628,244.300 23.613 C 243.915 23.606,243.600 23.423,243.600 23.208 C 243.600 22.992,243.150 22.702,242.600 22.564 C 242.050 22.426,241.600 22.153,241.600 21.957 C 241.600 21.760,241.150 21.600,240.600 21.600 C 240.050 21.600,239.600 21.428,239.600 21.219 C 239.600 21.009,238.925 20.521,238.100 20.134 C 237.275 19.747,236.362 19.199,236.071 18.915 C 235.781 18.632,235.286 18.400,234.971 18.400 C 234.657 18.400,234.400 18.220,234.400 18.000 C 234.400 17.780,233.969 17.600,233.443 17.600 C 232.916 17.600,232.382 17.330,232.255 17.000 C 232.129 16.670,231.659 16.400,231.213 16.400 C 230.766 16.400,230.400 16.220,230.400 16.000 C 230.400 15.780,229.950 15.600,229.400 15.600 C 228.733 15.600,228.400 15.378,228.400 14.933 C 228.400 14.567,228.298 14.369,228.173 14.494 C 228.048 14.618,227.412 14.198,226.759 13.560 C 226.107 12.922,225.309 12.400,224.986 12.400 C 224.664 12.400,224.400 12.220,224.400 12.000 C 224.400 11.780,223.950 11.600,223.400 11.600 C 222.778 11.600,222.400 11.373,222.400 11.000 C 222.400 10.627,222.022 10.400,221.400 10.400 C 220.850 10.400,220.400 10.220,220.400 10.000 C 220.400 9.780,219.680 9.600,218.800 9.600 C 217.644 9.600,217.200 9.433,217.200 9.000 C 217.200 8.670,216.851 8.400,216.424 8.400 C 215.997 8.400,215.536 8.220,215.400 8.000 C 215.264 7.780,214.823 7.600,214.419 7.600 C 214.016 7.600,213.582 7.330,213.455 7.000 C 213.329 6.670,212.859 6.400,212.413 6.400 C 211.966 6.400,211.600 6.220,211.600 6.000 C 211.600 5.780,211.411 5.600,211.181 5.600 C 210.950 5.600,210.345 5.150,209.835 4.600 C 209.325 4.050,208.614 3.600,208.254 3.600 C 207.894 3.600,207.600 3.423,207.600 3.208 C 207.600 2.992,207.150 2.702,206.600 2.564 C 206.050 2.426,205.600 2.153,205.600 1.957 C 205.600 1.760,205.215 1.600,204.744 1.600 C 204.273 1.600,203.658 1.285,203.377 0.900 C 202.732 0.018,190.800 -0.450,190.800 0.407 M196.305 8.352 C 196.687 8.545,197.990 9.027,199.200 9.422 C 200.410 9.818,201.940 10.459,202.600 10.849 C 203.260 11.238,204.785 12.057,205.989 12.669 C 207.193 13.281,208.723 14.235,209.389 14.791 C 210.055 15.346,210.960 15.996,211.400 16.237 C 211.840 16.477,213.280 17.277,214.600 18.015 C 215.920 18.753,217.810 19.787,218.800 20.312 C 219.790 20.838,221.500 21.787,222.600 22.421 C 223.700 23.056,224.870 23.699,225.200 23.851 C 225.530 24.003,226.610 24.703,227.600 25.407 C 228.590 26.111,229.940 26.817,230.600 26.976 C 231.907 27.291,234.947 28.732,238.400 30.675 C 239.610 31.355,241.552 32.438,242.716 33.081 C 243.880 33.724,245.230 34.596,245.716 35.020 C 246.202 35.444,247.320 36.163,248.200 36.619 C 249.080 37.074,250.880 38.051,252.200 38.789 C 257.130 41.545,261.338 43.880,262.400 44.448 C 262.730 44.624,264.620 45.520,266.600 46.438 C 268.580 47.356,270.290 48.219,270.400 48.354 C 270.510 48.490,271.410 49.011,272.400 49.512 C 273.390 50.013,275.460 51.134,277.000 52.004 C 278.540 52.873,280.062 53.711,280.383 53.867 C 280.703 54.022,281.388 54.520,281.904 54.975 C 282.762 55.728,287.574 58.540,290.000 59.704 C 290.550 59.968,291.090 60.277,291.200 60.392 C 291.577 60.784,295.799 62.716,297.800 63.411 C 298.900 63.794,300.194 64.464,300.676 64.901 C 301.500 65.647,302.812 66.415,306.600 68.368 C 307.480 68.821,309.100 69.727,310.200 70.381 C 311.300 71.035,312.951 71.935,313.868 72.381 C 314.786 72.826,316.676 73.968,318.068 74.919 C 319.461 75.869,320.870 76.777,321.200 76.936 C 321.530 77.095,322.700 77.747,323.800 78.387 C 326.633 80.032,327.894 80.617,330.400 81.449 C 332.664 82.200,335.193 83.567,336.600 84.800 C 337.040 85.185,338.390 86.043,339.600 86.706 C 340.810 87.369,342.790 88.471,344.000 89.153 C 345.210 89.836,347.010 90.800,348.000 91.297 C 348.990 91.793,349.890 92.289,350.000 92.400 C 350.110 92.510,350.912 92.960,351.781 93.400 C 352.651 93.840,353.822 94.584,354.384 95.053 C 355.266 95.791,356.703 96.658,360.200 98.564 C 362.614 99.880,362.400 89.928,362.400 200.888 C 362.400 299.498,362.357 303.200,361.215 303.200 C 360.684 303.200,355.954 306.009,354.800 307.009 C 354.250 307.486,352.630 308.514,351.200 309.295 C 349.770 310.076,347.520 311.304,346.200 312.024 C 344.880 312.745,342.630 313.960,341.200 314.724 C 339.770 315.488,337.880 316.611,337.000 317.219 C 336.120 317.828,334.680 318.544,333.800 318.812 C 331.967 319.369,331.656 319.508,329.200 320.870 C 328.210 321.419,326.320 322.467,325.000 323.199 C 320.361 325.771,319.639 326.207,318.701 327.000 C 318.181 327.440,316.865 328.263,315.778 328.829 C 313.834 329.840,311.556 331.095,307.200 333.554 C 305.990 334.238,303.830 335.355,302.400 336.037 C 298.902 337.707,298.858 337.729,296.800 338.870 C 295.810 339.419,293.920 340.468,292.600 341.200 C 291.280 341.932,289.660 342.832,289.000 343.200 C 288.340 343.568,286.720 344.461,285.400 345.185 C 284.080 345.908,282.445 346.914,281.767 347.419 C 281.089 347.925,279.919 348.682,279.167 349.103 C 271.005 353.671,269.848 354.252,267.456 354.984 C 266.166 355.379,264.546 356.192,263.856 356.791 C 263.165 357.389,261.250 358.601,259.600 359.484 C 257.950 360.366,255.880 361.496,255.000 361.994 C 254.120 362.492,251.870 363.703,250.000 364.685 C 248.130 365.666,246.150 366.878,245.600 367.379 C 244.148 368.699,238.510 371.747,235.978 372.580 C 234.780 372.974,233.530 373.426,233.200 373.584 C 231.607 374.348,228.549 376.148,227.439 376.976 C 226.758 377.484,225.120 378.492,223.800 379.215 C 222.480 379.939,220.860 380.832,220.200 381.200 C 217.723 382.581,214.139 384.565,212.400 385.516 C 211.410 386.058,210.240 386.816,209.800 387.201 C 207.963 388.808,203.134 391.200,201.725 391.200 C 201.479 391.200,200.162 391.830,198.800 392.600 C 195.825 394.281,192.445 393.847,190.800 391.571 C 190.690 391.419,189.768 391.013,188.752 390.670 C 187.736 390.326,186.296 389.704,185.552 389.288 C 183.536 388.160,177.628 384.880,174.400 383.096 C 173.630 382.670,172.640 382.007,172.200 381.622 C 171.467 380.980,170.373 380.338,165.200 377.514 C 159.562 374.436,158.565 373.870,158.220 373.551 C 158.011 373.358,157.471 373.199,157.020 373.199 C 156.569 373.198,155.570 372.800,154.800 372.315 C 154.030 371.830,153.040 371.233,152.600 370.989 C 149.718 369.385,146.801 367.758,145.600 367.083 C 144.830 366.651,142.850 365.572,141.200 364.687 C 139.550 363.801,137.390 362.499,136.400 361.793 C 135.410 361.088,133.790 360.065,132.800 359.521 C 131.810 358.977,129.920 357.933,128.600 357.202 C 125.302 355.376,125.295 355.373,122.659 354.543 C 121.371 354.138,119.661 353.261,118.859 352.593 C 118.057 351.926,116.680 351.025,115.800 350.590 C 114.920 350.156,114.110 349.710,114.000 349.600 C 113.890 349.490,113.260 349.120,112.600 348.778 C 109.734 347.291,106.985 345.785,106.800 345.600 C 106.690 345.490,105.569 344.885,104.308 344.255 C 103.048 343.626,101.248 342.521,100.308 341.800 C 97.907 339.959,93.660 337.714,90.922 336.839 C 89.645 336.431,87.700 335.596,86.600 334.984 C 85.500 334.373,84.240 333.676,83.800 333.436 C 83.360 333.196,82.328 332.493,81.507 331.872 C 80.687 331.252,79.247 330.332,78.307 329.829 C 77.368 329.325,75.790 328.464,74.800 327.916 C 72.666 326.735,67.975 324.174,65.991 323.106 C 65.215 322.689,63.976 321.820,63.236 321.174 C 62.497 320.528,61.646 320.000,61.346 320.000 C 61.046 320.000,60.800 319.843,60.800 319.651 C 60.800 319.459,60.111 319.192,59.269 319.057 C 57.837 318.828,55.368 317.671,50.600 314.992 C 49.500 314.374,47.985 313.524,47.233 313.103 C 46.481 312.682,45.311 311.925,44.633 311.419 C 43.955 310.914,42.320 309.908,41.000 309.185 C 39.680 308.461,38.060 307.568,37.400 307.200 C 36.740 306.832,35.120 305.932,33.800 305.200 C 32.480 304.467,30.860 303.567,30.200 303.200 L 29.000 302.531 28.899 201.408 C 28.827 129.209,28.922 100.134,29.232 99.761 C 29.471 99.474,30.506 98.816,31.533 98.298 C 32.560 97.781,34.210 96.902,35.200 96.345 C 36.190 95.787,38.080 94.732,39.400 94.000 C 40.720 93.268,42.430 92.317,43.200 91.887 C 43.970 91.457,45.230 90.619,46.000 90.025 C 46.770 89.431,48.030 88.631,48.800 88.247 C 49.570 87.863,51.100 87.030,52.200 86.396 C 53.300 85.762,54.920 84.868,55.800 84.409 C 56.680 83.950,57.940 83.252,58.600 82.858 C 59.260 82.463,60.745 81.804,61.900 81.391 C 63.055 80.979,64.000 80.498,64.000 80.321 C 64.000 80.144,64.163 80.000,64.362 80.000 C 64.560 80.000,65.865 79.348,67.262 78.551 C 68.658 77.754,71.136 76.392,72.768 75.525 C 78.181 72.649,80.186 71.481,81.600 70.379 C 82.953 69.324,85.626 67.776,89.800 65.629 C 90.900 65.063,91.890 64.509,92.000 64.397 C 92.110 64.285,93.190 63.865,94.400 63.463 C 97.409 62.463,98.370 61.999,100.000 60.759 C 101.380 59.709,103.670 58.352,107.200 56.494 C 108.190 55.973,109.900 55.017,111.000 54.370 C 112.100 53.722,113.720 52.831,114.600 52.389 C 116.498 51.436,117.434 50.851,118.603 49.885 C 120.284 48.497,126.257 45.450,128.289 44.944 C 128.900 44.792,129.940 44.367,130.600 44.000 C 131.260 43.632,132.700 42.831,133.800 42.219 C 134.900 41.607,136.430 40.632,137.200 40.053 C 138.726 38.905,138.956 38.769,143.270 36.467 C 144.882 35.607,146.830 34.549,147.600 34.117 C 148.370 33.685,150.068 32.737,151.374 32.012 C 152.679 31.287,154.119 30.344,154.574 29.916 C 155.492 29.052,157.650 28.005,160.452 27.064 C 163.112 26.171,170.539 22.145,172.800 20.372 C 173.570 19.768,175.640 18.505,177.400 17.567 C 179.160 16.628,181.230 15.482,182.000 15.019 C 182.770 14.556,184.120 13.822,185.000 13.389 C 185.880 12.955,186.660 12.465,186.733 12.300 C 186.807 12.135,187.042 12.000,187.255 12.000 C 187.469 12.000,188.838 11.280,190.297 10.400 C 191.756 9.520,193.355 8.800,193.851 8.800 C 194.347 8.800,194.864 8.620,195.000 8.400 C 195.302 7.911,195.426 7.906,196.305 8.352 M102.000 228.825 C 98.665 229.754,96.144 230.557,95.400 230.927 C 94.960 231.146,94.330 231.445,94.000 231.592 C 89.228 233.716,82.917 239.792,81.802 243.337 C 81.412 244.576,80.847 245.795,80.547 246.044 C 80.246 246.294,80.000 246.748,80.000 247.054 C 80.000 247.360,79.839 247.923,79.643 248.305 C 78.808 249.927,78.260 253.693,78.260 257.800 C 78.260 262.289,78.554 263.722,80.393 268.200 C 80.664 268.860,81.229 270.466,81.649 271.770 C 85.396 283.414,108.647 290.399,119.000 282.990 C 119.660 282.518,121.050 281.819,122.089 281.437 C 129.239 278.808,136.132 266.001,135.468 256.579 C 134.991 249.807,134.390 247.939,131.078 242.925 C 128.001 238.268,121.369 232.000,119.518 232.000 C 119.325 232.000,118.800 231.658,118.351 231.241 C 116.367 229.392,105.649 227.809,102.000 228.825 M281.000 228.800 C 280.560 228.989,279.660 229.162,279.000 229.185 C 277.792 229.226,273.807 230.460,273.325 230.941 C 273.183 231.084,272.832 231.200,272.544 231.200 C 270.666 231.200,263.200 237.170,263.200 238.672 C 263.200 238.962,263.058 239.200,262.885 239.200 C 262.491 239.200,259.200 244.167,259.200 244.763 C 259.200 245.003,259.061 245.200,258.891 245.200 C 257.962 245.200,256.550 249.612,255.991 254.259 C 255.538 258.028,256.016 264.149,256.828 264.980 C 257.033 265.189,257.200 265.671,257.200 266.052 C 257.200 268.441,264.953 280.800,266.451 280.800 C 266.617 280.800,268.248 281.487,270.076 282.326 C 276.454 285.254,279.347 286.000,284.325 286.000 C 289.515 286.000,292.266 285.284,298.200 282.387 C 304.391 279.365,308.946 273.921,311.411 266.600 C 311.782 265.500,312.255 264.234,312.464 263.786 C 312.959 262.723,312.672 251.861,312.094 249.818 C 311.553 247.904,309.555 244.000,309.116 244.000 C 308.942 244.000,308.800 243.791,308.800 243.536 C 308.800 241.652,300.529 233.298,297.000 231.619 C 291.552 229.026,283.695 227.642,281.000 228.800 M139.420 283.248 C 138.808 283.935,137.775 285.285,137.125 286.250 C 136.474 287.214,134.800 289.024,133.404 290.272 L 130.866 292.542 132.697 294.271 C 133.704 295.222,134.700 296.000,134.911 296.000 C 135.122 296.000,135.993 296.699,136.848 297.554 C 137.740 298.446,139.382 299.482,140.701 299.987 C 142.843 300.806,144.943 301.776,154.200 306.224 C 157.983 308.041,161.789 309.467,165.800 310.567 C 167.120 310.930,168.753 311.400,169.428 311.613 C 170.104 311.826,171.013 312.000,171.448 312.000 C 171.884 312.000,172.411 312.163,172.620 312.362 C 173.061 312.783,177.210 313.540,181.800 314.039 C 197.134 315.703,208.043 314.959,223.200 311.215 C 225.337 310.687,230.440 308.794,230.980 308.328 C 231.189 308.147,231.686 308.000,232.085 308.000 C 232.484 308.000,233.123 307.829,233.505 307.619 C 233.887 307.410,234.830 306.981,235.600 306.666 C 240.315 304.737,244.445 302.747,245.175 302.054 C 245.776 301.482,248.996 300.000,249.636 300.000 C 250.291 300.000,257.081 295.556,258.790 294.009 L 260.444 292.512 258.330 290.756 C 255.804 288.658,250.800 283.603,250.800 283.150 C 250.800 281.432,248.012 282.189,245.428 284.609 C 244.027 285.920,240.011 288.337,236.200 290.162 C 234.880 290.794,232.928 291.737,231.863 292.256 C 230.798 292.775,229.583 293.200,229.163 293.200 C 228.743 293.200,228.400 293.347,228.400 293.526 C 228.400 293.954,225.771 295.200,224.866 295.200 C 224.478 295.200,223.989 295.355,223.780 295.545 C 223.387 295.901,220.984 296.614,218.200 297.200 C 217.320 297.385,215.880 297.716,215.000 297.936 C 213.422 298.330,211.301 298.739,206.600 299.555 C 202.431 300.279,193.296 300.505,188.800 299.995 C 180.435 299.045,179.362 298.902,177.000 298.421 C 174.386 297.889,168.618 296.155,167.505 295.567 C 167.123 295.365,166.459 295.200,166.029 295.200 C 165.599 295.200,165.136 295.020,165.000 294.800 C 164.864 294.580,164.476 294.400,164.137 294.400 C 163.798 294.400,162.864 294.112,162.060 293.759 C 161.257 293.407,160.240 292.967,159.800 292.782 C 156.237 291.284,154.494 290.395,154.037 289.845 C 153.743 289.490,153.335 289.200,153.132 289.200 C 152.928 289.200,151.777 288.570,150.573 287.800 C 149.369 287.030,148.314 286.400,148.228 286.400 C 148.142 286.400,146.570 285.411,144.736 284.202 C 140.827 281.627,140.860 281.633,139.420 283.248 " stroke="none" fill="#f9fafa" fill-rule="evenodd"></path><path id="path1" d="M172.667 8.667 C 172.206 9.127,172.375 9.600,173.000 9.600 C 173.330 9.600,173.600 9.330,173.600 9.000 C 173.600 8.375,173.127 8.206,172.667 8.667 M217.600 9.000 C 217.600 9.330,217.864 9.600,218.187 9.600 C 218.545 9.600,218.685 9.365,218.545 9.000 C 218.418 8.670,218.154 8.400,217.957 8.400 C 217.761 8.400,217.600 8.670,217.600 9.000 M193.600 9.800 C 193.050 10.114,192.358 10.378,192.062 10.386 C 191.766 10.394,190.958 10.805,190.267 11.300 C 188.948 12.245,186.930 13.385,184.124 14.770 C 183.203 15.226,182.337 15.778,182.201 15.999 C 182.064 16.220,181.603 16.400,181.176 16.400 C 180.749 16.400,180.399 16.535,180.397 16.700 C 180.395 16.865,179.990 17.193,179.497 17.430 C 176.415 18.907,173.302 20.707,172.703 21.357 C 172.028 22.092,170.392 23.058,166.924 24.770 C 166.003 25.226,165.137 25.778,165.001 25.999 C 164.864 26.220,164.418 26.400,164.010 26.400 C 163.601 26.400,163.207 26.535,163.133 26.700 C 162.925 27.169,160.062 28.400,159.181 28.400 C 158.246 28.400,156.985 29.062,155.600 30.279 C 155.050 30.762,153.790 31.594,152.800 32.127 C 151.810 32.660,150.370 33.435,149.600 33.848 C 148.830 34.262,148.110 34.702,148.000 34.828 C 147.890 34.953,146.990 35.451,146.000 35.934 C 145.010 36.418,143.120 37.444,141.800 38.214 C 140.480 38.984,138.950 39.832,138.400 40.098 C 137.850 40.364,137.034 40.991,136.587 41.491 C 136.140 41.991,135.465 42.400,135.087 42.400 C 134.709 42.400,134.399 42.535,134.397 42.700 C 134.395 42.865,133.990 43.199,133.497 43.443 C 133.004 43.686,131.485 44.451,130.122 45.143 C 128.760 45.834,127.271 46.400,126.814 46.400 C 126.358 46.400,125.313 46.809,124.492 47.309 C 123.671 47.809,122.460 48.479,121.800 48.797 C 121.140 49.115,119.970 49.855,119.200 50.441 C 117.820 51.491,115.530 52.848,112.000 54.706 C 111.010 55.227,109.300 56.183,108.200 56.830 C 107.100 57.478,105.480 58.369,104.600 58.811 C 102.579 59.825,101.656 60.410,100.622 61.333 C 99.662 62.188,95.088 64.400,94.278 64.400 C 93.577 64.400,91.292 65.528,90.984 66.025 C 90.857 66.231,90.403 66.400,89.976 66.400 C 89.549 66.400,89.199 66.535,89.197 66.700 C 89.195 66.865,88.790 67.191,88.297 67.423 C 86.030 68.494,82.507 70.580,81.600 71.390 C 81.050 71.881,80.330 72.397,80.000 72.536 C 79.670 72.676,78.140 73.504,76.600 74.377 C 75.060 75.251,73.046 76.332,72.124 76.781 C 71.203 77.231,70.337 77.778,70.201 77.999 C 70.064 78.220,69.603 78.400,69.176 78.400 C 68.749 78.400,68.400 78.580,68.400 78.800 C 68.400 79.020,68.223 79.200,68.007 79.200 C 67.791 79.200,66.438 79.920,65.000 80.800 C 63.562 81.680,61.954 82.400,61.426 82.400 C 60.898 82.400,60.407 82.535,60.333 82.700 C 60.260 82.865,59.390 83.414,58.400 83.920 C 57.410 84.425,55.340 85.548,53.800 86.414 C 52.260 87.280,50.223 88.389,49.274 88.878 C 48.325 89.367,46.856 90.360,46.010 91.084 C 45.165 91.808,44.186 92.400,43.836 92.400 C 43.486 92.400,43.199 92.535,43.197 92.700 C 43.195 92.865,42.790 93.193,42.297 93.430 C 40.510 94.286,36.195 96.605,36.000 96.814 C 35.890 96.931,34.570 97.651,33.067 98.413 C 31.564 99.174,30.168 99.998,29.965 100.243 C 29.741 100.511,29.557 140.581,29.498 201.409 L 29.400 302.130 30.600 302.799 C 31.260 303.167,32.880 304.067,34.200 304.800 C 35.520 305.532,37.140 306.432,37.800 306.800 C 38.460 307.168,40.068 308.062,41.373 308.787 C 42.678 309.512,44.898 310.894,46.305 311.857 C 47.712 312.821,49.614 313.977,50.532 314.426 C 51.449 314.876,53.100 315.768,54.200 316.410 C 56.563 317.787,56.500 317.759,58.800 318.433 C 60.586 318.955,63.581 320.585,64.038 321.283 C 64.169 321.482,65.069 322.051,66.038 322.546 C 67.007 323.042,68.880 324.051,70.200 324.789 C 74.225 327.039,74.913 327.421,77.400 328.789 C 78.720 329.515,80.610 330.670,81.600 331.355 C 85.082 333.763,88.214 335.404,91.200 336.383 C 92.410 336.779,94.300 337.604,95.400 338.216 C 96.500 338.827,97.760 339.524,98.200 339.764 C 98.640 340.004,99.712 340.740,100.583 341.400 C 101.454 342.060,102.534 342.793,102.983 343.028 C 103.432 343.264,104.880 344.058,106.200 344.794 C 111.089 347.518,111.861 347.943,114.671 349.455 C 116.250 350.305,117.974 351.360,118.502 351.800 C 120.445 353.419,120.869 353.637,123.600 354.425 C 125.257 354.904,126.690 355.603,131.600 358.332 C 132.590 358.882,134.030 359.679,134.800 360.104 C 135.570 360.528,136.660 361.309,137.222 361.838 C 137.784 362.367,138.375 362.800,138.536 362.800 C 138.696 362.800,140.217 363.582,141.914 364.537 C 143.611 365.493,146.221 366.939,147.712 367.751 C 152.535 370.376,153.390 370.872,154.000 371.399 C 154.330 371.684,155.432 372.195,156.448 372.536 C 157.464 372.876,158.904 373.496,159.648 373.912 C 160.392 374.329,162.080 375.268,163.400 376.000 C 167.119 378.063,169.277 379.263,170.767 380.097 C 171.519 380.518,172.689 381.275,173.367 381.781 C 174.045 382.286,175.680 383.292,177.000 384.015 C 178.320 384.739,179.940 385.632,180.600 386.000 C 181.260 386.368,182.880 387.261,184.200 387.983 C 185.520 388.706,186.771 389.456,186.980 389.649 C 187.189 389.842,187.749 390.000,188.224 390.000 C 188.699 390.000,189.698 390.407,190.444 390.905 C 191.190 391.402,192.655 392.257,193.700 392.804 L 195.600 393.799 198.500 392.310 C 200.095 391.492,202.210 390.564,203.200 390.247 C 205.437 389.533,208.268 388.056,209.427 387.000 C 210.237 386.262,213.378 384.434,219.400 381.197 C 224.562 378.423,226.253 377.429,227.600 376.379 C 229.538 374.868,233.051 373.044,235.200 372.434 C 237.229 371.857,237.296 371.827,240.600 370.000 C 241.920 369.270,243.360 368.477,243.800 368.237 C 244.240 367.996,245.050 367.417,245.600 366.949 C 246.531 366.157,248.835 364.804,253.200 362.488 C 254.190 361.962,255.900 361.019,257.000 360.392 C 258.100 359.765,259.630 358.934,260.400 358.546 C 261.170 358.158,262.700 357.187,263.800 356.389 C 264.900 355.590,266.610 354.708,267.600 354.429 C 269.603 353.865,269.768 353.792,272.600 352.213 C 273.700 351.600,275.950 350.376,277.600 349.493 C 279.250 348.609,281.050 347.507,281.600 347.043 C 282.150 346.580,282.960 346.004,283.400 345.763 C 285.685 344.517,291.494 341.286,294.400 339.645 C 296.392 338.521,299.379 337.030,303.200 335.251 C 303.970 334.893,304.690 334.510,304.800 334.400 C 304.910 334.290,305.630 333.866,306.400 333.458 C 314.096 329.380,317.294 327.553,318.800 326.376 C 319.570 325.774,321.460 324.604,323.000 323.777 C 324.540 322.950,327.060 321.566,328.600 320.700 C 331.490 319.076,334.110 318.016,335.257 318.006 C 335.619 318.003,336.007 317.758,336.120 317.463 C 336.234 317.168,336.928 316.619,337.663 316.244 C 338.398 315.869,339.900 315.029,341.000 314.377 C 342.100 313.726,343.720 312.826,344.600 312.379 C 345.480 311.931,347.460 310.851,349.000 309.979 C 350.540 309.106,352.160 308.232,352.600 308.035 C 353.040 307.838,353.772 307.323,354.226 306.891 C 354.932 306.220,356.477 305.286,360.600 303.037 C 361.040 302.796,361.532 302.420,361.694 302.200 C 361.856 301.980,361.991 256.513,361.994 201.162 C 362.001 90.339,362.214 100.280,359.800 98.964 C 356.052 96.921,354.893 96.230,354.200 95.623 C 353.447 94.963,352.535 94.430,346.600 91.183 C 345.280 90.460,343.660 89.568,343.000 89.200 C 342.340 88.832,340.732 87.937,339.426 87.212 C 338.121 86.487,336.724 85.588,336.322 85.213 C 335.474 84.423,330.773 82.000,330.088 82.000 C 329.554 82.000,325.100 80.019,324.800 79.647 C 324.690 79.511,323.397 78.786,321.927 78.035 C 320.457 77.285,318.657 76.155,317.927 75.525 C 317.197 74.896,316.195 74.275,315.700 74.147 C 315.205 74.018,314.798 73.798,314.795 73.657 C 314.793 73.515,314.028 73.048,313.095 72.618 C 312.163 72.188,310.950 71.541,310.400 71.179 C 309.850 70.818,307.600 69.576,305.400 68.420 C 303.200 67.263,300.950 65.909,300.400 65.410 C 299.850 64.911,298.320 64.180,297.000 63.786 C 295.680 63.391,294.420 62.942,294.200 62.787 C 293.980 62.633,292.720 61.913,291.400 61.188 C 290.080 60.463,288.460 59.568,287.800 59.200 C 287.140 58.832,285.553 57.949,284.273 57.238 C 282.993 56.527,281.605 55.654,281.189 55.298 C 280.772 54.941,279.480 54.124,278.316 53.481 C 275.692 52.032,272.367 50.185,270.000 48.863 C 269.010 48.310,267.570 47.561,266.800 47.198 C 263.571 45.677,258.185 42.985,258.000 42.800 C 257.890 42.690,257.260 42.320,256.600 41.978 C 253.610 40.427,250.983 38.989,250.800 38.803 C 250.690 38.691,249.726 38.172,248.658 37.651 C 247.590 37.129,246.150 36.223,245.458 35.638 C 244.766 35.053,243.480 34.220,242.600 33.787 C 241.720 33.354,240.910 32.910,240.800 32.800 C 240.690 32.689,239.790 32.193,238.800 31.697 C 237.810 31.200,236.100 30.298,235.000 29.691 C 233.900 29.084,231.957 28.243,230.682 27.822 C 229.406 27.402,227.948 26.673,227.440 26.202 C 226.932 25.732,225.906 25.044,225.159 24.673 C 224.411 24.303,222.900 23.473,221.800 22.828 C 220.700 22.183,218.810 21.134,217.600 20.498 C 212.598 17.866,210.990 16.989,210.800 16.791 C 210.114 16.073,205.543 13.281,202.800 11.904 C 201.810 11.407,200.940 10.865,200.867 10.700 C 200.793 10.535,200.253 10.394,199.667 10.386 C 199.080 10.378,198.150 10.114,197.600 9.800 C 197.050 9.486,196.150 9.228,195.600 9.228 C 195.050 9.228,194.150 9.486,193.600 9.800 M140.300 26.676 C 139.248 26.951,139.459 27.600,140.600 27.600 C 141.222 27.600,141.600 27.373,141.600 27.000 C 141.600 26.385,141.505 26.361,140.300 26.676 M249.600 27.000 C 249.600 27.373,249.978 27.600,250.600 27.600 C 251.717 27.600,251.941 27.016,250.967 26.643 C 249.966 26.259,249.600 26.354,249.600 27.000 M107.784 44.827 C 107.639 45.061,107.616 45.349,107.733 45.467 C 108.020 45.753,108.800 45.248,108.800 44.776 C 108.800 44.265,108.109 44.299,107.784 44.827 M282.400 44.967 C 282.400 45.315,282.685 45.600,283.033 45.600 C 283.382 45.600,283.595 45.386,283.508 45.125 C 283.261 44.383,282.400 44.260,282.400 44.967 M75.300 62.665 C 74.534 62.974,74.706 63.600,75.557 63.600 C 75.974 63.600,76.418 63.330,76.545 63.000 C 76.773 62.405,76.276 62.271,75.300 62.665 M315.600 63.000 C 315.600 63.373,315.978 63.600,316.600 63.600 C 317.717 63.600,317.941 63.016,316.967 62.643 C 315.966 62.259,315.600 62.354,315.600 63.000 M42.667 80.667 C 42.206 81.127,42.375 81.600,43.000 81.600 C 43.330 81.600,43.600 81.330,43.600 81.000 C 43.600 80.375,43.127 80.206,42.667 80.667 M348.400 80.967 C 348.400 81.315,348.685 81.600,349.033 81.600 C 349.740 81.600,349.617 80.739,348.875 80.492 C 348.614 80.405,348.400 80.618,348.400 80.967 M201.084 81.629 C 202.798 81.865,204.650 82.244,205.200 82.471 C 206.875 83.163,208.988 84.180,209.200 84.397 C 209.310 84.510,210.664 85.623,212.208 86.871 C 222.631 95.294,227.314 109.984,222.467 119.051 C 222.247 119.463,221.753 120.519,221.369 121.397 C 219.400 125.898,216.174 129.706,210.690 133.999 C 208.130 136.003,207.717 136.161,202.600 137.095 C 189.687 139.453,175.949 134.828,172.615 127.000 C 172.240 126.120,171.773 125.130,171.578 124.800 C 165.369 114.331,165.371 105.510,171.585 94.800 C 171.777 94.470,172.207 93.568,172.540 92.795 C 174.008 89.397,180.232 84.585,185.800 82.544 C 189.116 81.329,195.936 80.920,201.084 81.629 M153.328 112.900 C 153.446 113.395,153.656 114.700,153.795 115.800 C 153.934 116.900,154.340 119.562,154.696 121.716 C 155.446 126.241,155.453 126.225,151.800 128.233 C 150.700 128.837,149.170 129.680,148.400 130.106 C 147.630 130.533,146.716 131.133,146.369 131.441 C 146.021 131.748,145.613 132.000,145.462 132.000 C 145.311 132.000,143.976 132.876,142.494 133.948 C 141.012 135.019,139.238 136.181,138.552 136.531 C 136.989 137.327,125.694 148.574,123.460 151.558 C 122.547 152.778,121.241 154.272,120.558 154.878 C 119.875 155.485,118.992 156.840,118.595 157.891 C 118.199 158.941,117.246 160.790,116.478 162.000 C 115.710 163.210,114.212 165.910,113.150 168.000 C 112.087 170.090,110.960 172.250,110.643 172.800 C 109.445 174.883,106.880 182.214,105.606 187.200 C 105.409 187.970,104.967 189.534,104.624 190.675 C 104.281 191.816,103.999 193.346,103.998 194.075 C 103.997 194.804,103.793 196.120,103.545 197.000 C 103.297 197.880,102.983 202.646,102.847 207.592 L 102.600 216.583 100.000 217.068 C 95.375 217.930,92.083 218.828,90.501 219.661 C 89.072 220.413,89.007 220.034,88.879 210.294 C 88.746 200.175,89.261 194.604,90.998 187.400 C 91.369 185.860,91.819 183.970,91.998 183.200 C 92.177 182.430,92.618 180.810,92.978 179.600 C 93.338 178.390,93.781 176.839,93.962 176.153 C 94.143 175.468,94.856 173.712,95.546 172.252 C 96.236 170.792,96.800 169.519,96.800 169.423 C 96.800 169.326,97.520 167.696,98.400 165.800 C 99.280 163.904,100.003 162.138,100.006 161.876 C 100.023 160.433,102.338 155.470,103.393 154.614 C 103.673 154.386,105.298 152.130,107.005 149.600 C 108.711 147.070,110.223 144.910,110.364 144.800 C 110.505 144.690,111.245 143.790,112.008 142.800 C 115.975 137.654,127.139 126.595,129.943 125.034 C 130.304 124.833,130.690 124.550,130.800 124.406 C 130.910 124.262,132.080 123.358,133.400 122.398 C 134.720 121.438,136.160 120.268,136.600 119.797 C 137.040 119.326,138.210 118.694,139.200 118.391 C 140.190 118.089,141.427 117.572,141.948 117.243 C 144.000 115.949,151.838 112.062,152.457 112.032 C 152.823 112.014,153.208 112.398,153.328 112.900 M241.845 113.409 C 243.331 114.184,245.132 115.264,245.847 115.809 C 246.562 116.354,247.279 116.800,247.442 116.800 C 247.604 116.800,248.021 117.038,248.369 117.329 C 248.716 117.620,249.810 118.101,250.800 118.398 C 253.515 119.214,262.151 125.260,263.600 127.360 C 263.930 127.838,265.175 129.123,266.367 130.215 C 267.559 131.307,269.599 133.228,270.901 134.484 C 272.202 135.740,273.567 136.875,273.933 137.006 C 275.179 137.451,280.627 144.393,281.597 146.771 C 282.268 148.417,284.868 152.416,286.635 154.520 C 287.754 155.853,291.621 163.195,293.314 167.200 C 294.049 168.940,294.885 170.864,295.920 173.200 C 296.359 174.190,297.022 175.990,297.394 177.200 C 297.766 178.410,298.265 180.030,298.503 180.800 C 300.228 186.393,301.284 197.176,301.305 209.400 C 301.323 219.801,301.326 219.789,299.080 218.859 C 297.141 218.055,292.655 216.949,289.909 216.596 C 287.479 216.285,287.684 217.069,287.454 207.181 C 287.207 196.619,286.606 193.063,283.056 181.200 C 282.496 179.330,281.808 176.810,281.525 175.600 C 280.600 171.632,271.960 155.998,270.286 155.262 C 269.775 155.037,263.882 147.801,262.852 146.134 C 262.331 145.291,260.289 143.160,258.313 141.400 C 256.338 139.640,254.510 138.003,254.251 137.762 C 253.992 137.520,253.065 136.996,252.190 136.597 C 250.589 135.866,247.127 133.451,245.112 131.657 C 243.852 130.536,240.791 128.683,237.500 127.047 C 235.149 125.879,234.759 125.198,235.579 123.695 C 236.225 122.508,238.000 115.013,238.000 113.468 C 238.000 111.611,238.385 111.606,241.845 113.409 M113.200 228.704 C 115.777 229.291,117.613 230.035,119.073 231.085 C 119.774 231.588,120.470 232.000,120.620 232.000 C 120.770 232.000,121.817 232.662,122.946 233.470 C 129.055 237.843,133.956 244.933,135.551 251.706 C 136.111 254.081,136.148 262.661,135.600 263.000 C 135.380 263.136,135.200 263.680,135.200 264.210 C 135.200 265.071,134.548 266.923,133.551 268.895 C 133.358 269.277,133.200 269.765,133.200 269.980 C 133.200 272.178,126.651 280.091,123.615 281.561 C 122.368 282.165,120.278 283.320,118.970 284.128 C 114.975 286.593,107.058 287.889,102.200 286.873 C 98.151 286.025,97.087 285.630,92.140 283.141 C 85.715 279.908,80.800 274.654,80.800 271.019 C 80.800 270.385,80.688 270.102,79.468 267.668 C 79.100 266.935,78.800 265.936,78.800 265.448 C 78.800 264.959,78.583 264.343,78.317 264.077 C 77.652 263.412,77.664 251.376,78.330 250.710 C 78.589 250.451,78.800 249.805,78.800 249.274 C 78.800 248.743,79.233 247.474,79.762 246.454 C 80.291 245.434,81.056 243.746,81.462 242.701 C 81.868 241.657,82.335 240.802,82.500 240.801 C 82.665 240.801,82.804 240.575,82.809 240.300 C 82.821 239.666,85.787 236.545,88.061 234.775 C 89.018 234.030,89.890 233.326,90.000 233.210 C 90.193 233.007,92.367 231.771,93.600 231.163 C 94.875 230.535,97.068 229.671,98.600 229.194 C 99.480 228.920,100.560 228.546,101.000 228.363 C 102.044 227.930,110.882 228.177,113.200 228.704 M289.094 228.428 C 294.654 229.676,299.168 231.660,301.042 233.680 C 301.715 234.406,303.069 235.720,304.050 236.600 C 305.640 238.025,309.200 242.433,309.200 242.975 C 309.200 243.090,309.798 244.133,310.529 245.292 C 313.179 249.497,314.437 260.847,312.638 264.326 C 312.287 265.005,312.000 265.896,312.000 266.305 C 312.000 266.715,311.550 267.983,311.000 269.123 C 310.450 270.263,310.000 271.308,310.000 271.444 C 310.000 272.771,304.250 279.539,301.600 281.332 C 298.636 283.337,297.570 283.928,295.200 284.877 C 286.308 288.439,279.450 287.903,269.272 282.848 L 264.744 280.600 262.010 276.546 C 259.231 272.425,257.318 268.688,256.511 265.800 C 255.356 261.672,255.202 260.700,255.232 257.754 C 255.262 254.686,255.943 249.807,256.453 249.000 C 256.592 248.780,256.826 248.039,256.973 247.354 C 257.120 246.669,257.555 245.769,257.940 245.354 C 258.325 244.939,258.989 243.970,259.416 243.200 C 259.842 242.430,260.744 241.080,261.419 240.200 C 262.094 239.320,263.049 237.936,263.540 237.125 C 267.039 231.351,280.980 226.606,289.094 228.428 M145.842 284.278 C 150.341 287.213,150.700 287.431,152.400 288.263 C 153.170 288.640,154.215 289.264,154.722 289.649 C 155.581 290.302,158.060 291.535,160.400 292.473 C 160.950 292.694,161.910 293.127,162.532 293.437 C 163.155 293.747,163.923 294.000,164.238 294.000 C 164.553 294.000,165.123 294.156,165.505 294.346 C 166.558 294.871,168.877 295.658,170.000 295.871 C 170.550 295.975,171.360 296.212,171.800 296.397 C 174.517 297.541,177.234 298.119,183.000 298.778 C 184.760 298.979,187.460 299.333,189.000 299.564 C 193.194 300.193,198.333 300.065,204.800 299.169 C 212.943 298.041,214.357 297.805,216.400 297.237 C 217.390 296.962,218.920 296.548,219.800 296.317 C 221.559 295.855,224.550 294.896,225.800 294.394 C 226.240 294.217,226.870 293.967,227.200 293.839 C 227.530 293.710,228.070 293.445,228.400 293.249 C 228.730 293.053,229.450 292.709,230.000 292.485 C 235.394 290.284,243.391 285.867,245.573 283.882 C 248.521 281.201,249.968 281.069,251.510 283.339 C 252.528 284.837,256.390 288.598,259.342 290.965 C 260.949 292.253,261.173 292.584,260.642 292.881 C 260.289 293.078,260.000 293.492,260.000 293.800 C 260.000 294.641,252.974 299.374,249.898 300.605 C 248.417 301.198,246.529 302.170,245.703 302.765 C 243.954 304.024,238.996 306.447,234.400 308.288 C 233.850 308.509,232.719 308.984,231.886 309.345 C 231.054 309.705,230.143 310.000,229.862 310.000 C 229.580 310.000,228.551 310.389,227.575 310.865 C 226.599 311.341,225.170 311.865,224.400 312.029 C 223.630 312.194,221.470 312.693,219.600 313.140 C 209.831 315.474,205.414 316.002,195.675 316.001 C 185.729 316.000,177.749 315.128,172.000 313.414 C 171.010 313.119,169.300 312.656,168.200 312.386 C 162.991 311.104,156.110 308.407,148.900 304.820 C 144.555 302.658,140.323 300.653,139.495 300.363 C 138.667 300.073,137.304 299.198,136.466 298.418 C 135.628 297.638,134.418 296.640,133.778 296.200 C 132.663 295.434,131.570 294.385,130.505 293.061 C 130.089 292.542,130.309 292.204,131.893 290.922 C 134.652 288.691,135.817 287.523,136.405 286.400 C 139.131 281.196,140.607 280.864,145.842 284.278 M354.400 318.000 C 354.400 318.220,354.670 318.400,355.000 318.400 C 355.330 318.400,355.600 318.220,355.600 318.000 C 355.600 317.780,355.330 317.600,355.000 317.600 C 354.670 317.600,354.400 317.780,354.400 318.000 M38.492 318.875 C 38.739 319.617,39.600 319.740,39.600 319.033 C 39.600 318.685,39.315 318.400,38.967 318.400 C 38.618 318.400,38.405 318.614,38.492 318.875 M352.400 319.033 C 352.400 319.382,352.614 319.595,352.875 319.508 C 353.617 319.261,353.740 318.400,353.033 318.400 C 352.685 318.400,352.400 318.685,352.400 319.033 M70.800 336.757 C 70.800 337.112,71.739 337.600,72.420 337.600 C 72.615 337.600,72.671 337.330,72.545 337.000 C 72.300 336.362,70.800 336.153,70.800 336.757 M103.600 354.967 C 103.600 355.315,103.885 355.600,104.233 355.600 C 104.582 355.600,104.795 355.386,104.708 355.125 C 104.461 354.383,103.600 354.260,103.600 354.967 M286.400 355.033 C 286.400 355.382,286.614 355.595,286.875 355.508 C 287.617 355.261,287.740 354.400,287.033 354.400 C 286.685 354.400,286.400 354.685,286.400 355.033 M136.000 373.000 C 136.274 373.330,136.746 373.600,137.049 373.600 C 137.352 373.600,137.600 373.330,137.600 373.000 C 137.600 372.619,137.217 372.400,136.551 372.400 C 135.664 372.400,135.579 372.493,136.000 373.000 M253.600 373.028 C 253.600 373.445,253.892 373.613,254.469 373.528 C 255.749 373.339,255.886 372.400,254.633 372.400 C 253.961 372.400,253.600 372.619,253.600 373.028 M169.600 390.967 C 169.600 391.315,169.885 391.600,170.233 391.600 C 170.582 391.600,170.795 391.386,170.708 391.125 C 170.461 390.383,169.600 390.260,169.600 390.967 M221.600 391.000 C 221.600 391.330,221.780 391.600,222.000 391.600 C 222.220 391.600,222.400 391.330,222.400 391.000 C 222.400 390.670,222.220 390.400,222.000 390.400 C 221.780 390.400,221.600 390.670,221.600 391.000 " stroke="none" fill="#204c70" fill-rule="evenodd"></path><path id="path2" d="M195.000 8.400 C 194.864 8.620,194.347 8.800,193.851 8.800 C 193.355 8.800,191.756 9.520,190.297 10.400 C 188.838 11.280,187.469 12.000,187.255 12.000 C 187.042 12.000,186.807 12.135,186.733 12.300 C 186.660 12.465,185.880 12.955,185.000 13.389 C 184.120 13.822,182.770 14.556,182.000 15.019 C 181.230 15.482,179.160 16.628,177.400 17.567 C 175.640 18.505,173.570 19.768,172.800 20.372 C 170.539 22.145,163.112 26.171,160.452 27.064 C 157.650 28.005,155.492 29.052,154.574 29.916 C 154.119 30.344,152.679 31.287,151.374 32.012 C 150.068 32.737,148.370 33.685,147.600 34.117 C 146.830 34.549,144.882 35.607,143.270 36.467 C 138.956 38.769,138.726 38.905,137.200 40.053 C 136.430 40.632,134.900 41.607,133.800 42.219 C 132.700 42.831,131.260 43.632,130.600 44.000 C 129.940 44.367,128.900 44.792,128.289 44.944 C 126.257 45.450,120.284 48.497,118.603 49.885 C 117.434 50.851,116.498 51.436,114.600 52.389 C 113.720 52.831,112.100 53.722,111.000 54.370 C 109.900 55.017,108.190 55.973,107.200 56.494 C 103.670 58.352,101.380 59.709,100.000 60.759 C 98.370 61.999,97.409 62.463,94.400 63.463 C 93.190 63.865,92.110 64.285,92.000 64.397 C 91.890 64.509,90.900 65.063,89.800 65.629 C 85.626 67.776,82.953 69.324,81.600 70.379 C 80.186 71.481,78.181 72.649,72.768 75.525 C 71.136 76.392,68.658 77.754,67.262 78.551 C 65.865 79.348,64.560 80.000,64.362 80.000 C 64.163 80.000,64.000 80.144,64.000 80.321 C 64.000 80.498,63.055 80.979,61.900 81.391 C 60.745 81.804,59.260 82.463,58.600 82.858 C 57.940 83.252,56.680 83.950,55.800 84.409 C 54.920 84.868,53.300 85.762,52.200 86.396 C 51.100 87.030,49.570 87.863,48.800 88.247 C 48.030 88.631,46.770 89.431,46.000 90.025 C 45.230 90.619,43.970 91.457,43.200 91.887 C 42.430 92.317,40.720 93.268,39.400 94.000 C 38.080 94.732,36.190 95.787,35.200 96.345 C 34.210 96.902,32.560 97.781,31.533 98.298 C 30.506 98.816,29.471 99.474,29.232 99.761 C 28.922 100.134,28.827 129.209,28.899 201.408 L 29.000 302.531 30.200 303.200 C 30.860 303.567,32.480 304.467,33.800 305.200 C 35.120 305.932,36.740 306.832,37.400 307.200 C 38.060 307.568,39.680 308.461,41.000 309.185 C 42.320 309.908,43.955 310.914,44.633 311.419 C 45.311 311.925,46.481 312.682,47.233 313.103 C 47.985 313.524,49.500 314.374,50.600 314.992 C 55.368 317.671,57.837 318.828,59.269 319.057 C 60.111 319.192,60.800 319.459,60.800 319.651 C 60.800 319.843,61.046 320.000,61.346 320.000 C 61.646 320.000,62.497 320.528,63.236 321.174 C 63.976 321.820,65.215 322.689,65.991 323.106 C 67.975 324.174,72.666 326.735,74.800 327.916 C 75.790 328.464,77.368 329.325,78.307 329.829 C 79.247 330.332,80.687 331.252,81.507 331.872 C 82.328 332.493,83.360 333.196,83.800 333.436 C 84.240 333.676,85.500 334.373,86.600 334.984 C 87.700 335.596,89.645 336.431,90.922 336.839 C 93.660 337.714,97.907 339.959,100.308 341.800 C 101.248 342.521,103.048 343.626,104.308 344.255 C 105.569 344.885,106.690 345.490,106.800 345.600 C 106.985 345.785,109.734 347.291,112.600 348.778 C 113.260 349.120,113.890 349.490,114.000 349.600 C 114.110 349.710,114.920 350.156,115.800 350.590 C 116.680 351.025,118.107 351.970,118.972 352.690 C 120.591 354.039,121.682 354.463,120.800 353.400 C 120.526 353.070,120.145 352.800,119.954 352.800 C 119.763 352.800,119.142 352.395,118.574 351.900 C 118.006 351.405,116.250 350.305,114.671 349.455 C 111.913 347.970,109.457 346.619,105.600 344.462 C 104.610 343.909,103.432 343.263,102.983 343.028 C 102.534 342.793,101.454 342.060,100.583 341.400 C 99.712 340.740,98.640 340.004,98.200 339.764 C 97.760 339.524,96.500 338.827,95.400 338.216 C 94.300 337.604,92.410 336.779,91.200 336.383 C 88.214 335.404,85.082 333.763,81.600 331.355 C 80.610 330.670,78.720 329.515,77.400 328.789 C 74.913 327.421,74.225 327.039,70.200 324.789 C 68.880 324.051,67.007 323.042,66.038 322.546 C 65.069 322.051,64.169 321.482,64.038 321.283 C 63.581 320.585,60.586 318.955,58.800 318.433 C 56.500 317.759,56.563 317.787,54.200 316.410 C 53.100 315.768,51.449 314.876,50.532 314.426 C 49.614 313.977,47.712 312.821,46.305 311.857 C 44.898 310.894,42.678 309.512,41.373 308.787 C 40.068 308.062,38.460 307.168,37.800 306.800 C 37.140 306.432,35.520 305.532,34.200 304.800 C 32.880 304.067,31.260 303.167,30.600 302.799 L 29.400 302.130 29.498 201.409 C 29.557 140.581,29.741 100.511,29.965 100.243 C 30.168 99.998,31.564 99.174,33.067 98.413 C 34.570 97.651,35.890 96.931,36.000 96.814 C 36.195 96.605,40.510 94.286,42.297 93.430 C 42.790 93.193,43.195 92.865,43.197 92.700 C 43.199 92.535,43.486 92.400,43.836 92.400 C 44.186 92.400,45.165 91.808,46.010 91.084 C 46.856 90.360,48.325 89.367,49.274 88.878 C 50.223 88.389,52.260 87.280,53.800 86.414 C 55.340 85.548,57.410 84.425,58.400 83.920 C 59.390 83.414,60.260 82.865,60.333 82.700 C 60.407 82.535,60.898 82.400,61.426 82.400 C 61.954 82.400,63.562 81.680,65.000 80.800 C 66.438 79.920,67.791 79.200,68.007 79.200 C 68.223 79.200,68.400 79.020,68.400 78.800 C 68.400 78.580,68.749 78.400,69.176 78.400 C 69.603 78.400,70.064 78.220,70.201 77.999 C 70.337 77.778,71.203 77.231,72.124 76.781 C 73.046 76.332,75.060 75.251,76.600 74.377 C 78.140 73.504,79.670 72.676,80.000 72.536 C 80.330 72.397,81.050 71.881,81.600 71.390 C 82.507 70.580,86.030 68.494,88.297 67.423 C 88.790 67.191,89.195 66.865,89.197 66.700 C 89.199 66.535,89.549 66.400,89.976 66.400 C 90.403 66.400,90.857 66.231,90.984 66.025 C 91.292 65.528,93.577 64.400,94.278 64.400 C 95.088 64.400,99.662 62.188,100.622 61.333 C 101.656 60.410,102.579 59.825,104.600 58.811 C 105.480 58.369,107.100 57.478,108.200 56.830 C 109.300 56.183,111.010 55.227,112.000 54.706 C 115.530 52.848,117.820 51.491,119.200 50.441 C 119.970 49.855,121.140 49.115,121.800 48.797 C 122.460 48.479,123.671 47.809,124.492 47.309 C 125.313 46.809,126.358 46.400,126.814 46.400 C 127.271 46.400,128.760 45.834,130.122 45.143 C 131.485 44.451,133.004 43.686,133.497 43.443 C 133.990 43.199,134.395 42.865,134.397 42.700 C 134.399 42.535,134.709 42.400,135.087 42.400 C 135.465 42.400,136.140 41.991,136.587 41.491 C 137.034 40.991,137.850 40.364,138.400 40.098 C 138.950 39.832,140.480 38.984,141.800 38.214 C 143.120 37.444,145.010 36.418,146.000 35.934 C 146.990 35.451,147.890 34.953,148.000 34.828 C 148.110 34.702,148.830 34.262,149.600 33.848 C 150.370 33.435,151.810 32.660,152.800 32.127 C 153.790 31.594,155.050 30.762,155.600 30.279 C 156.985 29.062,158.246 28.400,159.181 28.400 C 160.062 28.400,162.925 27.169,163.133 26.700 C 163.207 26.535,163.601 26.400,164.010 26.400 C 164.418 26.400,164.864 26.220,165.001 25.999 C 165.137 25.778,166.003 25.226,166.924 24.770 C 170.392 23.058,172.028 22.092,172.703 21.357 C 173.302 20.707,176.415 18.907,179.497 17.430 C 179.990 17.193,180.395 16.865,180.397 16.700 C 180.399 16.535,180.749 16.400,181.176 16.400 C 181.603 16.400,182.064 16.220,182.201 15.999 C 182.337 15.778,183.203 15.226,184.124 14.770 C 186.539 13.578,188.823 12.304,190.182 11.393 C 192.938 9.545,195.855 8.898,197.527 9.762 C 198.205 10.113,199.204 10.400,199.747 10.400 C 200.289 10.400,200.793 10.535,200.867 10.700 C 200.940 10.865,201.810 11.407,202.800 11.904 C 205.543 13.281,210.114 16.073,210.800 16.791 C 210.990 16.989,212.598 17.866,217.600 20.498 C 218.810 21.134,220.700 22.183,221.800 22.828 C 222.900 23.473,224.411 24.303,225.159 24.673 C 225.906 25.044,226.932 25.732,227.440 26.202 C 227.948 26.673,229.406 27.402,230.682 27.822 C 231.957 28.243,233.900 29.084,235.000 29.691 C 236.100 30.298,237.810 31.200,238.800 31.697 C 239.790 32.193,240.690 32.689,240.800 32.800 C 240.910 32.910,241.720 33.354,242.600 33.787 C 243.480 34.220,244.766 35.053,245.458 35.638 C 246.150 36.223,247.590 37.129,248.658 37.651 C 249.726 38.172,250.690 38.691,250.800 38.803 C 250.983 38.989,253.610 40.427,256.600 41.978 C 257.260 42.320,257.890 42.690,258.000 42.800 C 258.185 42.985,263.545 45.664,266.800 47.199 C 267.570 47.562,269.280 48.460,270.600 49.195 C 271.920 49.930,273.720 50.932,274.600 51.422 C 275.480 51.912,277.152 52.839,278.316 53.481 C 279.480 54.124,280.772 54.941,281.189 55.298 C 281.605 55.654,282.993 56.527,284.273 57.238 C 285.553 57.949,287.140 58.832,287.800 59.200 C 288.460 59.568,290.080 60.463,291.400 61.188 C 292.720 61.913,293.980 62.633,294.200 62.787 C 294.420 62.942,295.680 63.391,297.000 63.786 C 298.320 64.180,299.850 64.911,300.400 65.410 C 300.950 65.909,303.200 67.263,305.400 68.420 C 307.600 69.576,309.850 70.818,310.400 71.179 C 310.950 71.541,312.163 72.188,313.095 72.618 C 314.028 73.048,314.793 73.515,314.795 73.657 C 314.798 73.798,315.205 74.018,315.700 74.147 C 316.195 74.275,317.197 74.896,317.927 75.525 C 318.657 76.155,320.457 77.285,321.927 78.035 C 323.397 78.786,324.690 79.511,324.800 79.647 C 325.100 80.019,329.554 82.000,330.088 82.000 C 330.773 82.000,335.474 84.423,336.322 85.213 C 336.724 85.588,338.121 86.487,339.426 87.212 C 340.732 87.937,342.340 88.832,343.000 89.200 C 343.660 89.568,345.280 90.460,346.600 91.183 C 352.535 94.430,353.447 94.963,354.200 95.623 C 354.893 96.230,356.052 96.921,359.800 98.964 C 362.214 100.280,362.001 90.339,361.994 201.162 C 361.991 256.513,361.856 301.980,361.694 302.200 C 361.532 302.420,361.040 302.796,360.600 303.037 C 356.613 305.212,355.009 306.172,354.236 306.844 C 353.341 307.622,351.299 308.830,348.200 310.416 C 347.320 310.866,345.340 311.949,343.800 312.821 C 342.260 313.694,340.612 314.575,340.139 314.779 C 339.665 314.983,339.150 315.358,338.993 315.611 C 338.728 316.040,340.039 315.387,346.200 312.024 C 347.520 311.304,349.770 310.076,351.200 309.295 C 352.630 308.514,354.250 307.486,354.800 307.009 C 355.954 306.009,360.684 303.200,361.215 303.200 C 362.357 303.200,362.400 299.498,362.400 200.888 C 362.400 89.928,362.614 99.880,360.200 98.564 C 356.703 96.658,355.266 95.791,354.384 95.053 C 353.822 94.584,352.651 93.840,351.781 93.400 C 350.912 92.960,350.110 92.510,350.000 92.400 C 349.890 92.289,348.990 91.793,348.000 91.297 C 347.010 90.800,345.210 89.836,344.000 89.153 C 342.790 88.471,340.810 87.369,339.600 86.706 C 338.390 86.043,337.040 85.185,336.600 84.800 C 335.193 83.567,332.664 82.200,330.400 81.449 C 327.894 80.617,326.633 80.032,323.800 78.387 C 322.700 77.747,321.530 77.095,321.200 76.936 C 320.870 76.777,319.461 75.869,318.068 74.919 C 316.676 73.968,314.786 72.826,313.868 72.381 C 312.951 71.935,311.300 71.035,310.200 70.381 C 309.100 69.727,307.480 68.821,306.600 68.368 C 302.812 66.415,301.500 65.647,300.676 64.901 C 300.194 64.464,298.900 63.794,297.800 63.411 C 295.799 62.716,291.577 60.784,291.200 60.392 C 291.090 60.277,290.550 59.968,290.000 59.704 C 287.574 58.540,282.762 55.728,281.904 54.975 C 281.388 54.520,280.703 54.022,280.383 53.867 C 280.062 53.711,278.540 52.873,277.000 52.004 C 275.460 51.134,273.390 50.013,272.400 49.512 C 271.410 49.011,270.510 48.490,270.400 48.354 C 270.290 48.219,268.580 47.356,266.600 46.438 C 264.620 45.520,262.730 44.624,262.400 44.448 C 261.338 43.880,257.130 41.545,252.200 38.789 C 250.880 38.051,249.080 37.074,248.200 36.619 C 247.320 36.163,246.202 35.444,245.716 35.020 C 245.230 34.596,243.880 33.724,242.716 33.081 C 241.552 32.438,239.610 31.355,238.400 30.675 C 234.947 28.732,231.907 27.291,230.600 26.976 C 229.940 26.817,228.590 26.111,227.600 25.407 C 226.610 24.703,225.530 24.003,225.200 23.851 C 224.870 23.699,223.700 23.056,222.600 22.421 C 221.500 21.787,219.790 20.838,218.800 20.312 C 217.810 19.787,215.920 18.753,214.600 18.015 C 213.280 17.277,211.840 16.477,211.400 16.237 C 210.960 15.996,210.055 15.346,209.389 14.791 C 208.723 14.235,207.193 13.281,205.989 12.669 C 204.785 12.057,203.260 11.238,202.600 10.849 C 201.940 10.459,200.410 9.818,199.200 9.422 C 197.990 9.027,196.687 8.545,196.305 8.352 C 195.426 7.906,195.302 7.911,195.000 8.400 M189.000 81.783 C 182.354 83.079,174.454 88.364,172.540 92.795 C 172.207 93.568,171.777 94.470,171.585 94.800 C 165.371 105.510,165.369 114.331,171.578 124.800 C 171.773 125.130,172.240 126.120,172.615 127.000 C 175.949 134.828,189.687 139.453,202.600 137.095 C 207.717 136.161,208.130 136.003,210.690 133.999 C 216.174 129.706,219.400 125.898,221.369 121.397 C 221.753 120.519,222.247 119.463,222.467 119.051 C 227.314 109.984,222.631 95.294,212.208 86.871 C 210.664 85.623,209.310 84.510,209.200 84.397 C 208.988 84.180,206.875 83.163,205.200 82.471 C 202.303 81.275,193.518 80.902,189.000 81.783 M147.348 114.354 C 144.899 115.614,142.469 116.914,141.948 117.243 C 141.427 117.572,140.190 118.089,139.200 118.391 C 138.210 118.694,137.040 119.326,136.600 119.797 C 136.160 120.268,134.720 121.438,133.400 122.398 C 132.080 123.358,130.910 124.262,130.800 124.406 C 130.690 124.550,130.304 124.833,129.943 125.034 C 127.139 126.595,115.975 137.654,112.008 142.800 C 111.245 143.790,110.505 144.690,110.364 144.800 C 110.223 144.910,108.711 147.070,107.005 149.600 C 105.298 152.130,103.673 154.386,103.393 154.614 C 102.338 155.470,100.023 160.433,100.006 161.876 C 100.003 162.138,99.280 163.904,98.400 165.800 C 97.520 167.696,96.800 169.326,96.800 169.423 C 96.800 169.519,96.236 170.792,95.546 172.252 C 94.856 173.712,94.143 175.468,93.962 176.153 C 93.781 176.839,93.338 178.390,92.978 179.600 C 92.618 180.810,92.177 182.430,91.998 183.200 C 91.819 183.970,91.369 185.860,90.998 187.400 C 89.261 194.604,88.746 200.175,88.879 210.294 C 89.007 220.034,89.072 220.413,90.501 219.661 C 92.083 218.828,95.375 217.930,100.000 217.068 L 102.600 216.583 102.847 207.592 C 102.983 202.646,103.297 197.880,103.545 197.000 C 103.793 196.120,103.997 194.804,103.998 194.075 C 103.999 193.346,104.281 191.816,104.624 190.675 C 104.967 189.534,105.409 187.970,105.606 187.200 C 106.880 182.214,109.445 174.883,110.643 172.800 C 110.960 172.250,112.087 170.090,113.150 168.000 C 114.212 165.910,115.710 163.210,116.478 162.000 C 117.246 160.790,118.199 158.941,118.595 157.891 C 118.992 156.840,119.875 155.485,120.558 154.878 C 121.241 154.272,122.547 152.778,123.460 151.558 C 125.694 148.574,136.989 137.327,138.552 136.531 C 139.238 136.181,141.012 135.019,142.494 133.948 C 143.976 132.876,145.311 132.000,145.462 132.000 C 145.613 132.000,146.021 131.748,146.369 131.441 C 146.716 131.133,147.630 130.533,148.400 130.106 C 149.170 129.680,150.700 128.837,151.800 128.233 C 155.453 126.225,155.446 126.241,154.696 121.716 C 154.340 119.562,153.934 116.900,153.795 115.800 C 153.213 111.193,153.407 111.236,147.348 114.354 M238.000 113.468 C 238.000 115.013,236.225 122.508,235.579 123.695 C 234.759 125.198,235.149 125.879,237.500 127.047 C 240.791 128.683,243.852 130.536,245.112 131.657 C 247.127 133.451,250.589 135.866,252.190 136.597 C 253.065 136.996,253.992 137.520,254.251 137.762 C 254.510 138.003,256.338 139.640,258.313 141.400 C 260.289 143.160,262.331 145.291,262.852 146.134 C 263.882 147.801,269.775 155.037,270.286 155.262 C 271.960 155.998,280.600 171.632,281.525 175.600 C 281.808 176.810,282.496 179.330,283.056 181.200 C 286.606 193.063,287.207 196.619,287.454 207.181 C 287.684 217.069,287.479 216.285,289.909 216.596 C 292.655 216.949,297.141 218.055,299.080 218.859 C 301.326 219.789,301.323 219.801,301.305 209.400 C 301.284 197.176,300.228 186.393,298.503 180.800 C 298.265 180.030,297.766 178.410,297.394 177.200 C 297.022 175.990,296.359 174.190,295.920 173.200 C 294.885 170.864,294.049 168.940,293.314 167.200 C 291.621 163.195,287.754 155.853,286.635 154.520 C 284.868 152.416,282.268 148.417,281.597 146.771 C 280.627 144.393,275.179 137.451,273.933 137.006 C 273.567 136.875,272.202 135.740,270.901 134.484 C 269.599 133.228,267.559 131.307,266.367 130.215 C 265.175 129.123,263.930 127.838,263.600 127.360 C 262.151 125.260,253.515 119.214,250.800 118.398 C 249.810 118.101,248.716 117.620,248.369 117.329 C 248.021 117.038,247.604 116.800,247.442 116.800 C 247.279 116.800,246.562 116.354,245.847 115.809 C 244.199 114.552,239.324 112.000,238.571 112.000 C 238.180 112.000,238.000 112.463,238.000 113.468 M101.000 228.363 C 100.560 228.546,99.480 228.920,98.600 229.194 C 97.068 229.671,94.875 230.535,93.600 231.163 C 92.367 231.771,90.193 233.007,90.000 233.210 C 89.890 233.326,89.018 234.030,88.061 234.775 C 85.787 236.545,82.821 239.666,82.809 240.300 C 82.804 240.575,82.665 240.801,82.500 240.801 C 82.335 240.802,81.868 241.657,81.462 242.701 C 81.056 243.746,80.291 245.434,79.762 246.454 C 79.233 247.474,78.800 248.743,78.800 249.274 C 78.800 249.805,78.589 250.451,78.330 250.710 C 77.664 251.376,77.652 263.412,78.317 264.077 C 78.583 264.343,78.800 264.959,78.800 265.448 C 78.800 265.936,79.100 266.935,79.468 267.668 C 80.688 270.102,80.800 270.385,80.800 271.019 C 80.800 275.731,90.633 284.000,98.694 286.068 C 106.286 288.015,113.843 287.292,118.970 284.128 C 120.278 283.320,122.368 282.165,123.615 281.561 C 126.651 280.091,133.200 272.178,133.200 269.980 C 133.200 269.765,133.358 269.277,133.551 268.895 C 134.548 266.923,135.200 265.071,135.200 264.210 C 135.200 263.680,135.380 263.136,135.600 263.000 C 136.148 262.661,136.111 254.081,135.551 251.706 C 133.956 244.933,129.055 237.843,122.946 233.470 C 121.817 232.662,120.770 232.000,120.620 232.000 C 120.470 232.000,119.774 231.588,119.073 231.085 C 115.864 228.779,104.219 227.025,101.000 228.363 M279.400 228.475 C 272.273 230.143,265.549 233.810,263.540 237.125 C 263.049 237.936,262.094 239.320,261.419 240.200 C 260.744 241.080,259.842 242.430,259.416 243.200 C 258.989 243.970,258.325 244.939,257.940 245.354 C 257.555 245.769,257.120 246.669,256.973 247.354 C 256.826 248.039,256.592 248.780,256.453 249.000 C 255.943 249.807,255.262 254.686,255.232 257.754 C 255.202 260.700,255.356 261.672,256.511 265.800 C 257.318 268.688,259.231 272.425,262.010 276.546 L 264.744 280.600 269.272 282.848 C 276.478 286.426,278.532 286.993,284.208 286.969 C 289.911 286.945,295.239 285.506,299.200 282.922 C 302.109 281.024,302.650 280.608,304.527 278.828 C 306.220 277.223,310.000 272.123,310.000 271.444 C 310.000 271.308,310.450 270.263,311.000 269.123 C 311.550 267.983,311.991 266.679,311.979 266.225 C 311.966 265.699,311.736 265.979,311.343 267.000 C 308.453 274.504,304.237 279.440,298.200 282.387 C 292.266 285.284,289.515 286.000,284.325 286.000 C 279.347 286.000,276.454 285.254,270.076 282.326 C 268.248 281.487,266.617 280.800,266.451 280.800 C 264.953 280.800,257.200 268.441,257.200 266.052 C 257.200 265.671,257.033 265.189,256.828 264.980 C 256.016 264.149,255.538 258.028,255.991 254.259 C 256.550 249.612,257.962 245.200,258.891 245.200 C 259.061 245.200,259.200 245.003,259.200 244.763 C 259.200 244.167,262.491 239.200,262.885 239.200 C 263.058 239.200,263.200 238.962,263.200 238.672 C 263.200 237.170,270.666 231.200,272.544 231.200 C 272.832 231.200,273.199 231.068,273.360 230.907 C 274.065 230.201,278.455 229.118,282.947 228.540 C 286.359 228.101,292.379 229.420,297.000 231.619 C 300.529 233.298,308.800 241.652,308.800 243.536 C 308.800 243.791,308.942 244.000,309.116 244.000 C 309.554 244.000,311.553 247.903,312.095 249.818 C 312.706 251.976,312.968 263.192,312.421 263.739 C 312.189 263.971,312.007 264.439,312.016 264.780 C 312.025 265.129,312.304 264.899,312.654 264.252 C 314.447 260.941,313.161 249.469,310.529 245.292 C 309.798 244.133,309.200 243.090,309.200 242.975 C 309.200 242.433,305.640 238.025,304.050 236.600 C 303.069 235.720,301.715 234.406,301.042 233.680 C 297.323 229.671,285.965 226.939,279.400 228.475 M112.200 229.139 C 115.619 229.808,117.505 230.452,118.351 231.241 C 118.800 231.658,119.325 232.000,119.518 232.000 C 121.369 232.000,128.001 238.268,131.078 242.925 C 134.390 247.939,134.991 249.807,135.468 256.579 C 136.132 266.001,129.239 278.808,122.089 281.437 C 121.050 281.819,119.660 282.518,119.000 282.990 C 108.647 290.399,85.396 283.414,81.649 271.770 C 81.229 270.466,80.664 268.860,80.393 268.200 C 78.554 263.722,78.260 262.289,78.260 257.800 C 78.260 253.693,78.808 249.927,79.643 248.305 C 79.839 247.923,80.000 247.360,80.000 247.054 C 80.000 246.748,80.246 246.294,80.547 246.044 C 80.847 245.795,81.412 244.576,81.802 243.337 C 82.917 239.792,89.228 233.716,94.000 231.592 C 94.330 231.445,94.960 231.146,95.400 230.927 C 96.144 230.557,98.665 229.754,102.000 228.825 C 103.590 228.382,109.212 228.555,112.200 229.139 M138.554 283.468 C 137.660 284.531,136.693 285.850,136.405 286.400 C 135.817 287.523,134.652 288.691,131.893 290.922 C 130.309 292.204,130.089 292.542,130.505 293.061 C 131.570 294.385,132.663 295.434,133.778 296.200 C 134.418 296.640,135.628 297.638,136.466 298.418 C 137.304 299.198,138.667 300.073,139.495 300.363 C 140.323 300.653,144.555 302.658,148.900 304.820 C 156.110 308.407,162.991 311.104,168.200 312.386 C 169.300 312.656,171.010 313.119,172.000 313.414 C 177.749 315.128,185.729 316.000,195.675 316.001 C 205.414 316.002,209.831 315.474,219.600 313.140 C 221.470 312.693,223.630 312.194,224.400 312.029 C 225.170 311.865,226.599 311.341,227.575 310.865 C 228.551 310.389,229.580 310.000,229.862 310.000 C 230.143 310.000,231.054 309.705,231.886 309.345 C 232.719 308.984,233.850 308.509,234.400 308.288 C 238.996 306.447,243.954 304.024,245.703 302.765 C 246.529 302.170,248.417 301.198,249.898 300.605 C 252.974 299.374,260.000 294.641,260.000 293.800 C 260.000 293.492,260.289 293.078,260.642 292.881 C 261.173 292.584,260.949 292.253,259.342 290.965 C 256.390 288.598,252.528 284.837,251.510 283.339 C 249.968 281.069,248.521 281.201,245.573 283.882 C 243.391 285.867,235.394 290.284,230.000 292.485 C 229.450 292.709,228.730 293.053,228.400 293.249 C 228.070 293.445,227.530 293.710,227.200 293.839 C 226.870 293.967,226.240 294.217,225.800 294.394 C 224.550 294.896,221.559 295.855,219.800 296.317 C 218.920 296.548,217.390 296.962,216.400 297.237 C 214.398 297.794,213.030 298.026,205.200 299.141 C 201.033 299.734,200.297 299.920,201.976 299.955 C 203.173 299.980,205.243 299.806,206.576 299.569 C 211.871 298.628,213.465 298.319,215.000 297.936 C 215.880 297.716,217.320 297.385,218.200 297.200 C 220.984 296.614,223.387 295.901,223.780 295.545 C 223.989 295.355,224.478 295.200,224.866 295.200 C 225.771 295.200,228.400 293.954,228.400 293.526 C 228.400 293.347,228.743 293.200,229.163 293.200 C 229.583 293.200,230.798 292.775,231.863 292.256 C 232.928 291.737,234.880 290.794,236.200 290.162 C 240.011 288.337,244.027 285.920,245.428 284.609 C 248.012 282.189,250.800 281.432,250.800 283.150 C 250.800 283.603,255.804 288.658,258.330 290.756 L 260.444 292.512 258.790 294.009 C 257.081 295.556,250.291 300.000,249.636 300.000 C 248.996 300.000,245.776 301.482,245.175 302.054 C 244.445 302.747,240.315 304.737,235.600 306.666 C 234.830 306.981,233.887 307.410,233.505 307.619 C 233.123 307.829,232.484 308.000,232.085 308.000 C 231.686 308.000,231.189 308.147,230.980 308.328 C 230.440 308.794,225.337 310.687,223.200 311.215 C 208.043 314.959,197.134 315.703,181.800 314.039 C 177.210 313.540,173.061 312.783,172.620 312.362 C 172.411 312.163,171.884 312.000,171.448 312.000 C 171.013 312.000,170.104 311.826,169.428 311.613 C 168.753 311.400,167.120 310.930,165.800 310.567 C 161.789 309.467,157.983 308.041,154.200 306.224 C 144.943 301.776,142.843 300.806,140.701 299.987 C 139.382 299.482,137.740 298.446,136.848 297.554 C 135.993 296.699,135.122 296.000,134.911 296.000 C 134.700 296.000,133.704 295.222,132.697 294.271 L 130.866 292.542 133.404 290.272 C 134.800 289.024,136.474 287.214,137.125 286.250 C 140.416 281.373,140.435 281.368,144.736 284.202 C 146.570 285.411,148.142 286.400,148.228 286.400 C 148.314 286.400,149.369 287.030,150.573 287.800 C 151.777 288.570,152.928 289.200,153.132 289.200 C 153.335 289.200,153.743 289.490,154.037 289.845 C 154.494 290.395,156.237 291.284,159.800 292.782 C 160.240 292.967,161.257 293.407,162.060 293.759 C 162.864 294.112,163.798 294.400,164.137 294.400 C 164.476 294.400,164.864 294.580,165.000 294.800 C 165.136 295.020,165.599 295.200,166.029 295.200 C 166.459 295.200,167.123 295.367,167.505 295.571 C 169.742 296.764,177.098 298.602,182.100 299.218 C 189.814 300.168,192.055 300.347,195.800 300.313 C 199.601 300.279,199.520 300.262,194.172 299.988 C 191.076 299.829,188.179 299.584,187.733 299.442 C 187.288 299.301,185.320 299.011,183.362 298.798 C 177.341 298.144,174.593 297.573,171.800 296.397 C 171.360 296.212,170.550 295.975,170.000 295.871 C 168.877 295.658,166.558 294.871,165.505 294.346 C 165.123 294.156,164.553 294.000,164.238 294.000 C 163.923 294.000,163.155 293.747,162.532 293.437 C 161.910 293.127,160.950 292.694,160.400 292.473 C 158.060 291.535,155.581 290.302,154.722 289.649 C 154.215 289.264,153.170 288.640,152.400 288.263 C 150.700 287.431,150.341 287.213,145.842 284.278 C 140.981 281.108,140.577 281.063,138.554 283.468 M336.806 316.782 C 336.259 317.202,335.899 317.631,336.006 317.737 C 336.113 317.842,336.740 317.495,337.400 316.966 C 338.812 315.834,338.262 315.663,336.806 316.782 M332.800 318.607 C 332.030 318.889,330.140 319.829,328.600 320.697 C 327.060 321.564,324.540 322.950,323.000 323.777 C 321.460 324.604,319.570 325.774,318.800 326.376 C 317.294 327.553,314.096 329.380,306.400 333.458 C 305.630 333.866,304.910 334.290,304.800 334.400 C 304.690 334.510,303.970 334.893,303.200 335.251 C 299.377 337.031,296.392 338.521,294.400 339.646 C 293.190 340.329,291.210 341.438,290.000 342.110 C 285.832 344.424,284.198 345.329,283.400 345.764 C 282.960 346.004,282.150 346.580,281.600 347.043 C 281.050 347.507,279.250 348.609,277.600 349.493 C 275.950 350.376,273.700 351.600,272.600 352.213 C 269.772 353.789,269.605 353.864,267.600 354.434 C 266.610 354.715,264.906 355.588,263.813 356.373 C 261.829 357.798,260.088 358.808,256.924 360.370 C 256.003 360.826,255.137 361.378,255.001 361.599 C 254.691 362.100,255.307 362.127,255.820 361.635 C 256.029 361.435,257.640 360.507,259.400 359.575 C 261.160 358.642,263.165 357.389,263.856 356.791 C 264.546 356.192,266.166 355.379,267.456 354.984 C 269.848 354.252,271.005 353.671,279.167 349.103 C 279.919 348.682,281.089 347.925,281.767 347.420 C 282.445 346.915,283.810 346.058,284.800 345.516 C 286.542 344.563,290.136 342.574,292.600 341.200 C 298.681 337.808,298.602 337.850,302.400 336.037 C 303.830 335.355,305.990 334.238,307.200 333.554 C 311.556 331.095,313.834 329.840,315.778 328.829 C 316.865 328.263,318.181 327.440,318.701 327.000 C 319.221 326.560,320.312 325.824,321.124 325.365 C 322.940 324.337,326.791 322.201,329.200 320.885 C 330.190 320.344,331.171 319.743,331.380 319.551 C 331.589 319.358,332.063 319.200,332.434 319.200 C 332.805 319.200,333.714 318.937,334.454 318.616 C 336.143 317.882,334.795 317.875,332.800 318.607 M318.400 337.000 C 318.400 337.330,318.670 337.600,319.000 337.600 C 319.330 337.600,319.600 337.330,319.600 337.000 C 319.600 336.670,319.330 336.400,319.000 336.400 C 318.670 336.400,318.400 336.670,318.400 337.000 M122.746 354.616 C 123.486 354.937,124.395 355.200,124.766 355.200 C 125.137 355.200,125.611 355.358,125.820 355.551 C 126.029 355.743,127.010 356.344,128.000 356.885 C 133.581 359.935,134.763 360.625,136.400 361.793 C 137.390 362.499,139.550 363.801,141.200 364.687 C 142.850 365.572,144.830 366.651,145.600 367.083 C 146.801 367.758,149.718 369.385,152.600 370.989 C 153.040 371.233,154.030 371.830,154.800 372.315 C 155.570 372.800,156.569 373.198,157.020 373.199 C 157.471 373.199,158.011 373.358,158.220 373.551 C 158.565 373.870,159.562 374.436,165.200 377.514 C 170.373 380.338,171.467 380.980,172.200 381.622 C 172.640 382.007,173.630 382.670,174.400 383.096 C 177.628 384.880,183.536 388.160,185.552 389.288 C 186.296 389.704,187.736 390.326,188.752 390.670 C 189.768 391.013,190.690 391.419,190.800 391.571 C 192.445 393.847,195.825 394.281,198.800 392.600 C 200.162 391.830,201.485 391.200,201.738 391.200 C 202.888 391.199,208.649 388.515,208.284 388.151 C 208.180 388.046,207.419 388.340,206.595 388.803 C 205.770 389.266,204.264 389.910,203.248 390.234 C 202.232 390.557,200.095 391.492,198.500 392.310 L 195.600 393.799 193.700 392.804 C 192.655 392.257,191.190 391.402,190.444 390.905 C 189.698 390.407,188.699 390.000,188.224 390.000 C 187.749 390.000,187.189 389.842,186.980 389.649 C 186.771 389.456,185.520 388.706,184.200 387.983 C 182.880 387.261,181.260 386.368,180.600 386.000 C 179.940 385.632,178.320 384.739,177.000 384.015 C 175.680 383.292,174.042 382.284,173.361 381.776 C 172.679 381.268,171.239 380.361,170.161 379.760 C 169.082 379.160,167.660 378.367,167.000 377.999 C 166.340 377.632,164.720 376.732,163.400 376.000 C 162.080 375.268,160.392 374.329,159.648 373.912 C 158.904 373.496,157.464 372.876,156.448 372.536 C 155.432 372.195,154.330 371.684,154.000 371.399 C 153.390 370.872,152.535 370.376,147.712 367.751 C 146.221 366.939,143.611 365.493,141.914 364.537 C 140.217 363.582,138.696 362.800,138.536 362.800 C 138.375 362.800,137.784 362.367,137.222 361.838 C 136.660 361.309,135.570 360.528,134.800 360.103 C 132.526 358.848,128.701 356.726,127.259 355.919 C 125.666 355.026,122.842 354.008,122.000 354.021 C 121.670 354.027,122.006 354.294,122.746 354.616 M252.600 362.763 C 251.940 363.151,250.320 364.060,249.000 364.783 C 247.680 365.506,246.150 366.481,245.600 366.949 C 245.050 367.417,244.240 367.996,243.800 368.237 C 239.164 370.766,238.148 371.346,237.820 371.649 C 237.037 372.372,238.011 371.946,241.257 370.144 C 243.096 369.123,245.050 367.879,245.600 367.379 C 246.150 366.878,248.220 365.625,250.200 364.593 C 252.180 363.561,253.971 362.556,254.180 362.359 C 254.811 361.763,253.905 361.995,252.600 362.763 M234.379 372.610 C 232.425 373.322,229.281 375.070,227.600 376.379 C 226.217 377.457,224.463 378.482,219.000 381.407 C 211.993 385.158,208.800 387.131,208.800 387.711 C 208.800 387.947,209.205 387.771,209.700 387.320 C 210.195 386.869,211.680 385.908,213.000 385.185 C 214.320 384.461,215.940 383.568,216.600 383.201 C 219.340 381.674,221.535 380.457,223.800 379.211 C 225.120 378.485,227.034 377.285,228.054 376.545 C 229.073 375.805,230.022 375.200,230.162 375.200 C 230.301 375.200,231.129 374.750,232.000 374.200 C 232.871 373.650,233.837 373.200,234.146 373.200 C 234.455 373.200,235.314 372.937,236.054 372.616 C 237.748 371.880,236.397 371.876,234.379 372.610 " stroke="none" fill="#5cb3db" fill-rule="evenodd"></path></g></svg>