<svg viewBox="0 0 96 96" xmlns="http://www.w3.org/2000/svg" xmlns:xlink="http://www.w3.org/1999/xlink" id="Icons_Woman" overflow="hidden"><g><circle cx="48.1" cy="11" r="8" stroke="none" stroke-width="1" stroke-linecap="butt" fill="#61B7E1" fill-opacity="1"/><path d="M69.9 51.8 62.7 27C62.5 26 61.9 25.2 61.1 24.8 58.7 23.2 55.9 22.2 52.7 21.4 51.1 21.2 49.7 21 48.1 21 46.5 21 45.1 21.2 43.5 21.4 40.3 22 37.5 23.2 35.1 24.8 34.3 25.4 33.7 26 33.5 27L26.1 51.8C25.5 54 26.7 56.2 28.9 56.8 29.3 57 29.7 57 30.1 57 31.9 57 33.5 55.8 33.9 54.2L40.1 33.2 40.1 40.2 32.7 65 38.1 65 38.1 93 46.1 93 46.1 65 50.1 65 50.1 93 58.1 93 58.1 65 63.5 65 56.1 40.2 56.1 33.2 62.3 54.2C62.9 56 64.5 57 66.1 57 66.5 57 66.9 57 67.3 56.8 69.3 56.2 70.5 54 69.9 51.8Z" stroke="none" stroke-width="1" stroke-linecap="butt" fill="#61B7E1" fill-opacity="1"/></g></svg>